%TF.GenerationSoftware,KiCad,Pcbnew,(6.0.8)*%
%TF.CreationDate,2022-10-05T13:18:44+02:00*%
%TF.ProjectId,Pico_Interface,5069636f-5f49-46e7-9465-72666163652e,rev?*%
%TF.SameCoordinates,Original*%
%TF.FileFunction,Legend,Top*%
%TF.FilePolarity,Positive*%
%FSLAX46Y46*%
G04 Gerber Fmt 4.6, Leading zero omitted, Abs format (unit mm)*
G04 Created by KiCad (PCBNEW (6.0.8)) date 2022-10-05 13:18:44*
%MOMM*%
%LPD*%
G01*
G04 APERTURE LIST*
%ADD10C,0.300000*%
%TA.AperFunction,Profile*%
%ADD11C,0.100000*%
%TD*%
%ADD12C,0.150000*%
%ADD13C,0.120000*%
G04 APERTURE END LIST*
D10*
X87237857Y-141138571D02*
X87237857Y-139638571D01*
X87809285Y-139638571D01*
X87952142Y-139710000D01*
X88023571Y-139781428D01*
X88095000Y-139924285D01*
X88095000Y-140138571D01*
X88023571Y-140281428D01*
X87952142Y-140352857D01*
X87809285Y-140424285D01*
X87237857Y-140424285D01*
X88737857Y-141138571D02*
X88737857Y-140138571D01*
X88737857Y-139638571D02*
X88666428Y-139710000D01*
X88737857Y-139781428D01*
X88809285Y-139710000D01*
X88737857Y-139638571D01*
X88737857Y-139781428D01*
X89666428Y-141138571D02*
X89523571Y-141067142D01*
X89452142Y-140995714D01*
X89380714Y-140852857D01*
X89380714Y-140424285D01*
X89452142Y-140281428D01*
X89523571Y-140210000D01*
X89666428Y-140138571D01*
X89880714Y-140138571D01*
X90023571Y-140210000D01*
X90095000Y-140281428D01*
X90166428Y-140424285D01*
X90166428Y-140852857D01*
X90095000Y-140995714D01*
X90023571Y-141067142D01*
X89880714Y-141138571D01*
X89666428Y-141138571D01*
X92237857Y-139638571D02*
X92523571Y-139638571D01*
X92666428Y-139710000D01*
X92809285Y-139852857D01*
X92880714Y-140138571D01*
X92880714Y-140638571D01*
X92809285Y-140924285D01*
X92666428Y-141067142D01*
X92523571Y-141138571D01*
X92237857Y-141138571D01*
X92095000Y-141067142D01*
X91952142Y-140924285D01*
X91880714Y-140638571D01*
X91880714Y-140138571D01*
X91952142Y-139852857D01*
X92095000Y-139710000D01*
X92237857Y-139638571D01*
X94023571Y-140352857D02*
X94237857Y-140424285D01*
X94309285Y-140495714D01*
X94380714Y-140638571D01*
X94380714Y-140852857D01*
X94309285Y-140995714D01*
X94237857Y-141067142D01*
X94095000Y-141138571D01*
X93523571Y-141138571D01*
X93523571Y-139638571D01*
X94023571Y-139638571D01*
X94166428Y-139710000D01*
X94237857Y-139781428D01*
X94309285Y-139924285D01*
X94309285Y-140067142D01*
X94237857Y-140210000D01*
X94166428Y-140281428D01*
X94023571Y-140352857D01*
X93523571Y-140352857D01*
X95023571Y-140567142D02*
X96166428Y-140567142D01*
X96880714Y-141138571D02*
X96880714Y-139638571D01*
X97380714Y-140710000D01*
X97880714Y-139638571D01*
X97880714Y-141138571D01*
X98595000Y-139638571D02*
X98595000Y-140852857D01*
X98666428Y-140995714D01*
X98737857Y-141067142D01*
X98880714Y-141138571D01*
X99166428Y-141138571D01*
X99309285Y-141067142D01*
X99380714Y-140995714D01*
X99452142Y-140852857D01*
X99452142Y-139638571D01*
X87452142Y-143553571D02*
X87452142Y-142053571D01*
X87809285Y-142053571D01*
X88023571Y-142125000D01*
X88166428Y-142267857D01*
X88237857Y-142410714D01*
X88309285Y-142696428D01*
X88309285Y-142910714D01*
X88237857Y-143196428D01*
X88166428Y-143339285D01*
X88023571Y-143482142D01*
X87809285Y-143553571D01*
X87452142Y-143553571D01*
X89523571Y-143482142D02*
X89380714Y-143553571D01*
X89095000Y-143553571D01*
X88952142Y-143482142D01*
X88880714Y-143339285D01*
X88880714Y-142767857D01*
X88952142Y-142625000D01*
X89095000Y-142553571D01*
X89380714Y-142553571D01*
X89523571Y-142625000D01*
X89595000Y-142767857D01*
X89595000Y-142910714D01*
X88880714Y-143053571D01*
X90023571Y-142553571D02*
X90595000Y-142553571D01*
X90237857Y-142053571D02*
X90237857Y-143339285D01*
X90309285Y-143482142D01*
X90452142Y-143553571D01*
X90595000Y-143553571D01*
X91666428Y-143482142D02*
X91523571Y-143553571D01*
X91237857Y-143553571D01*
X91095000Y-143482142D01*
X91023571Y-143339285D01*
X91023571Y-142767857D01*
X91095000Y-142625000D01*
X91237857Y-142553571D01*
X91523571Y-142553571D01*
X91666428Y-142625000D01*
X91737857Y-142767857D01*
X91737857Y-142910714D01*
X91023571Y-143053571D01*
X93023571Y-143482142D02*
X92880714Y-143553571D01*
X92595000Y-143553571D01*
X92452142Y-143482142D01*
X92380714Y-143410714D01*
X92309285Y-143267857D01*
X92309285Y-142839285D01*
X92380714Y-142696428D01*
X92452142Y-142625000D01*
X92595000Y-142553571D01*
X92880714Y-142553571D01*
X93023571Y-142625000D01*
X93452142Y-142553571D02*
X94023571Y-142553571D01*
X93666428Y-142053571D02*
X93666428Y-143339285D01*
X93737857Y-143482142D01*
X93880714Y-143553571D01*
X94023571Y-143553571D01*
X94737857Y-143553571D02*
X94595000Y-143482142D01*
X94523571Y-143410714D01*
X94452142Y-143267857D01*
X94452142Y-142839285D01*
X94523571Y-142696428D01*
X94595000Y-142625000D01*
X94737857Y-142553571D01*
X94952142Y-142553571D01*
X95095000Y-142625000D01*
X95166428Y-142696428D01*
X95237857Y-142839285D01*
X95237857Y-143267857D01*
X95166428Y-143410714D01*
X95095000Y-143482142D01*
X94952142Y-143553571D01*
X94737857Y-143553571D01*
X95880714Y-143553571D02*
X95880714Y-142553571D01*
X95880714Y-142839285D02*
X95952142Y-142696428D01*
X96023571Y-142625000D01*
X96166428Y-142553571D01*
X96309285Y-142553571D01*
X97952142Y-143553571D02*
X97952142Y-142053571D01*
X99166428Y-142767857D02*
X98666428Y-142767857D01*
X98666428Y-143553571D02*
X98666428Y-142053571D01*
X99380714Y-142053571D01*
X88130714Y-144468571D02*
X88416428Y-144468571D01*
X88559285Y-144540000D01*
X88702142Y-144682857D01*
X88773571Y-144968571D01*
X88773571Y-145468571D01*
X88702142Y-145754285D01*
X88559285Y-145897142D01*
X88416428Y-145968571D01*
X88130714Y-145968571D01*
X87987857Y-145897142D01*
X87845000Y-145754285D01*
X87773571Y-145468571D01*
X87773571Y-144968571D01*
X87845000Y-144682857D01*
X87987857Y-144540000D01*
X88130714Y-144468571D01*
X90059285Y-145897142D02*
X89916428Y-145968571D01*
X89630714Y-145968571D01*
X89487857Y-145897142D01*
X89416428Y-145825714D01*
X89345000Y-145682857D01*
X89345000Y-145254285D01*
X89416428Y-145111428D01*
X89487857Y-145040000D01*
X89630714Y-144968571D01*
X89916428Y-144968571D01*
X90059285Y-145040000D01*
X90487857Y-144968571D02*
X91059285Y-144968571D01*
X90702142Y-144468571D02*
X90702142Y-145754285D01*
X90773571Y-145897142D01*
X90916428Y-145968571D01*
X91059285Y-145968571D01*
X92630714Y-144611428D02*
X92702142Y-144540000D01*
X92845000Y-144468571D01*
X93202142Y-144468571D01*
X93345000Y-144540000D01*
X93416428Y-144611428D01*
X93487857Y-144754285D01*
X93487857Y-144897142D01*
X93416428Y-145111428D01*
X92559285Y-145968571D01*
X93487857Y-145968571D01*
X94416428Y-144468571D02*
X94559285Y-144468571D01*
X94702142Y-144540000D01*
X94773571Y-144611428D01*
X94845000Y-144754285D01*
X94916428Y-145040000D01*
X94916428Y-145397142D01*
X94845000Y-145682857D01*
X94773571Y-145825714D01*
X94702142Y-145897142D01*
X94559285Y-145968571D01*
X94416428Y-145968571D01*
X94273571Y-145897142D01*
X94202142Y-145825714D01*
X94130714Y-145682857D01*
X94059285Y-145397142D01*
X94059285Y-145040000D01*
X94130714Y-144754285D01*
X94202142Y-144611428D01*
X94273571Y-144540000D01*
X94416428Y-144468571D01*
X95487857Y-144611428D02*
X95559285Y-144540000D01*
X95702142Y-144468571D01*
X96059285Y-144468571D01*
X96202142Y-144540000D01*
X96273571Y-144611428D01*
X96345000Y-144754285D01*
X96345000Y-144897142D01*
X96273571Y-145111428D01*
X95416428Y-145968571D01*
X96345000Y-145968571D01*
X97273571Y-144468571D02*
X97416428Y-144468571D01*
X97559285Y-144540000D01*
X97630714Y-144611428D01*
X97702142Y-144754285D01*
X97773571Y-145040000D01*
X97773571Y-145397142D01*
X97702142Y-145682857D01*
X97630714Y-145825714D01*
X97559285Y-145897142D01*
X97416428Y-145968571D01*
X97273571Y-145968571D01*
X97130714Y-145897142D01*
X97059285Y-145825714D01*
X96987857Y-145682857D01*
X96916428Y-145397142D01*
X96916428Y-145040000D01*
X96987857Y-144754285D01*
X97059285Y-144611428D01*
X97130714Y-144540000D01*
X97273571Y-144468571D01*
D11*
X85090000Y-106680000D02*
X127635000Y-106680000D01*
X127635000Y-106680000D02*
X127635000Y-147320000D01*
X127635000Y-147320000D02*
X85090000Y-147320000D01*
X85090000Y-147320000D02*
X85090000Y-106680000D01*
D12*
%TO.C,U1*%
X105918095Y-113752380D02*
X105918095Y-114561904D01*
X105965714Y-114657142D01*
X106013333Y-114704761D01*
X106108571Y-114752380D01*
X106299047Y-114752380D01*
X106394285Y-114704761D01*
X106441904Y-114657142D01*
X106489523Y-114561904D01*
X106489523Y-113752380D01*
X107489523Y-114752380D02*
X106918095Y-114752380D01*
X107203809Y-114752380D02*
X107203809Y-113752380D01*
X107108571Y-113895238D01*
X107013333Y-113990476D01*
X106918095Y-114038095D01*
X118766158Y-115718155D02*
X118685346Y-115745093D01*
X118604534Y-115825905D01*
X118550659Y-115933654D01*
X118550659Y-116041404D01*
X118577597Y-116122216D01*
X118658409Y-116256903D01*
X118739221Y-116337715D01*
X118873908Y-116418528D01*
X118954720Y-116445465D01*
X119062470Y-116445465D01*
X119170219Y-116391590D01*
X119224094Y-116337715D01*
X119277969Y-116229966D01*
X119277969Y-116176091D01*
X119089407Y-115987529D01*
X118981658Y-116095279D01*
X119574280Y-115987529D02*
X119008595Y-115421844D01*
X119897529Y-115664280D01*
X119331844Y-115098595D01*
X120166903Y-115394906D02*
X119601218Y-114829221D01*
X119735905Y-114694534D01*
X119843654Y-114640659D01*
X119951404Y-114640659D01*
X120032216Y-114667597D01*
X120166903Y-114748409D01*
X120247715Y-114829221D01*
X120328528Y-114963908D01*
X120355465Y-115044720D01*
X120355465Y-115152470D01*
X120301590Y-115260219D01*
X120166903Y-115394906D01*
X92669722Y-113420592D02*
X92588910Y-113447529D01*
X92508097Y-113528341D01*
X92454223Y-113636091D01*
X92454223Y-113743841D01*
X92481160Y-113824653D01*
X92561972Y-113959340D01*
X92642784Y-114040152D01*
X92777471Y-114120964D01*
X92858284Y-114147902D01*
X92966033Y-114147902D01*
X93073783Y-114094027D01*
X93127658Y-114040152D01*
X93181532Y-113932402D01*
X93181532Y-113878528D01*
X92992971Y-113689966D01*
X92885221Y-113797715D01*
X93477844Y-113689966D02*
X92912158Y-113124280D01*
X93127658Y-112908781D01*
X93208470Y-112881844D01*
X93262345Y-112881844D01*
X93343157Y-112908781D01*
X93423969Y-112989593D01*
X93450906Y-113070406D01*
X93450906Y-113124280D01*
X93423969Y-113205093D01*
X93208470Y-113420592D01*
X94339841Y-112827969D02*
X94016592Y-113151218D01*
X94178216Y-112989593D02*
X93612531Y-112423908D01*
X93639468Y-112558595D01*
X93639468Y-112666345D01*
X93612531Y-112747157D01*
X93962717Y-112073722D02*
X94312903Y-111723536D01*
X94339841Y-112127597D01*
X94420653Y-112046784D01*
X94501465Y-112019847D01*
X94555340Y-112019847D01*
X94636152Y-112046784D01*
X94770839Y-112181471D01*
X94797776Y-112262284D01*
X94797776Y-112316158D01*
X94770839Y-112396971D01*
X94609215Y-112558595D01*
X94528402Y-112585532D01*
X94474528Y-112585532D01*
X92669722Y-121040592D02*
X92588910Y-121067529D01*
X92508097Y-121148341D01*
X92454223Y-121256091D01*
X92454223Y-121363841D01*
X92481160Y-121444653D01*
X92561972Y-121579340D01*
X92642784Y-121660152D01*
X92777471Y-121740964D01*
X92858284Y-121767902D01*
X92966033Y-121767902D01*
X93073783Y-121714027D01*
X93127658Y-121660152D01*
X93181532Y-121552402D01*
X93181532Y-121498528D01*
X92992971Y-121309966D01*
X92885221Y-121417715D01*
X93477844Y-121309966D02*
X92912158Y-120744280D01*
X93127658Y-120528781D01*
X93208470Y-120501844D01*
X93262345Y-120501844D01*
X93343157Y-120528781D01*
X93423969Y-120609593D01*
X93450906Y-120690406D01*
X93450906Y-120744280D01*
X93423969Y-120825093D01*
X93208470Y-121040592D01*
X94339841Y-120447969D02*
X94016592Y-120771218D01*
X94178216Y-120609593D02*
X93612531Y-120043908D01*
X93639468Y-120178595D01*
X93639468Y-120286345D01*
X93612531Y-120367157D01*
X94285966Y-119370473D02*
X94016592Y-119639847D01*
X94259028Y-119936158D01*
X94259028Y-119882284D01*
X94285966Y-119801471D01*
X94420653Y-119666784D01*
X94501465Y-119639847D01*
X94555340Y-119639847D01*
X94636152Y-119666784D01*
X94770839Y-119801471D01*
X94797776Y-119882284D01*
X94797776Y-119936158D01*
X94770839Y-120016971D01*
X94636152Y-120151658D01*
X94555340Y-120178595D01*
X94501465Y-120178595D01*
X118777722Y-118500592D02*
X118696910Y-118527529D01*
X118616097Y-118608341D01*
X118562223Y-118716091D01*
X118562223Y-118823841D01*
X118589160Y-118904653D01*
X118669972Y-119039340D01*
X118750784Y-119120152D01*
X118885471Y-119200964D01*
X118966284Y-119227902D01*
X119074033Y-119227902D01*
X119181783Y-119174027D01*
X119235658Y-119120152D01*
X119289532Y-119012402D01*
X119289532Y-118958528D01*
X119100971Y-118769966D01*
X118993221Y-118877715D01*
X119585844Y-118769966D02*
X119020158Y-118204280D01*
X119235658Y-117988781D01*
X119316470Y-117961844D01*
X119370345Y-117961844D01*
X119451157Y-117988781D01*
X119531969Y-118069593D01*
X119558906Y-118150406D01*
X119558906Y-118204280D01*
X119531969Y-118285093D01*
X119316470Y-118500592D01*
X120447841Y-117907969D02*
X120124592Y-118231218D01*
X120286216Y-118069593D02*
X119720531Y-117503908D01*
X119747468Y-117638595D01*
X119747468Y-117746345D01*
X119720531Y-117827157D01*
X120070717Y-117153722D02*
X120447841Y-116776598D01*
X120771089Y-117584720D01*
X99170476Y-123043809D02*
X99284761Y-123081904D01*
X99475238Y-123081904D01*
X99551428Y-123043809D01*
X99589523Y-123005714D01*
X99627619Y-122929523D01*
X99627619Y-122853333D01*
X99589523Y-122777142D01*
X99551428Y-122739047D01*
X99475238Y-122700952D01*
X99322857Y-122662857D01*
X99246666Y-122624761D01*
X99208571Y-122586666D01*
X99170476Y-122510476D01*
X99170476Y-122434285D01*
X99208571Y-122358095D01*
X99246666Y-122320000D01*
X99322857Y-122281904D01*
X99513333Y-122281904D01*
X99627619Y-122320000D01*
X99894285Y-122281904D02*
X100084761Y-123081904D01*
X100237142Y-122510476D01*
X100389523Y-123081904D01*
X100580000Y-122281904D01*
X101341904Y-123005714D02*
X101303809Y-123043809D01*
X101189523Y-123081904D01*
X101113333Y-123081904D01*
X100999047Y-123043809D01*
X100922857Y-122967619D01*
X100884761Y-122891428D01*
X100846666Y-122739047D01*
X100846666Y-122624761D01*
X100884761Y-122472380D01*
X100922857Y-122396190D01*
X100999047Y-122320000D01*
X101113333Y-122281904D01*
X101189523Y-122281904D01*
X101303809Y-122320000D01*
X101341904Y-122358095D01*
X102065714Y-123081904D02*
X101684761Y-123081904D01*
X101684761Y-122281904D01*
X102332380Y-123081904D02*
X102332380Y-122281904D01*
X102789523Y-123081904D02*
X102446666Y-122624761D01*
X102789523Y-122281904D02*
X102332380Y-122739047D01*
X118777722Y-121040592D02*
X118696910Y-121067529D01*
X118616097Y-121148341D01*
X118562223Y-121256091D01*
X118562223Y-121363841D01*
X118589160Y-121444653D01*
X118669972Y-121579340D01*
X118750784Y-121660152D01*
X118885471Y-121740964D01*
X118966284Y-121767902D01*
X119074033Y-121767902D01*
X119181783Y-121714027D01*
X119235658Y-121660152D01*
X119289532Y-121552402D01*
X119289532Y-121498528D01*
X119100971Y-121309966D01*
X118993221Y-121417715D01*
X119585844Y-121309966D02*
X119020158Y-120744280D01*
X119235658Y-120528781D01*
X119316470Y-120501844D01*
X119370345Y-120501844D01*
X119451157Y-120528781D01*
X119531969Y-120609593D01*
X119558906Y-120690406D01*
X119558906Y-120744280D01*
X119531969Y-120825093D01*
X119316470Y-121040592D01*
X120447841Y-120447969D02*
X120124592Y-120771218D01*
X120286216Y-120609593D02*
X119720531Y-120043908D01*
X119747468Y-120178595D01*
X119747468Y-120286345D01*
X119720531Y-120367157D01*
X120367028Y-119397410D02*
X120259279Y-119505160D01*
X120232341Y-119585972D01*
X120232341Y-119639847D01*
X120259279Y-119774534D01*
X120340091Y-119909221D01*
X120555590Y-120124720D01*
X120636402Y-120151658D01*
X120690277Y-120151658D01*
X120771089Y-120124720D01*
X120878839Y-120016971D01*
X120905776Y-119936158D01*
X120905776Y-119882284D01*
X120878839Y-119801471D01*
X120744152Y-119666784D01*
X120663340Y-119639847D01*
X120609465Y-119639847D01*
X120528653Y-119666784D01*
X120420903Y-119774534D01*
X120393966Y-119855346D01*
X120393966Y-119909221D01*
X120420903Y-119990033D01*
X110584761Y-123043809D02*
X110699047Y-123081904D01*
X110889523Y-123081904D01*
X110965714Y-123043809D01*
X111003809Y-123005714D01*
X111041904Y-122929523D01*
X111041904Y-122853333D01*
X111003809Y-122777142D01*
X110965714Y-122739047D01*
X110889523Y-122700952D01*
X110737142Y-122662857D01*
X110660952Y-122624761D01*
X110622857Y-122586666D01*
X110584761Y-122510476D01*
X110584761Y-122434285D01*
X110622857Y-122358095D01*
X110660952Y-122320000D01*
X110737142Y-122281904D01*
X110927619Y-122281904D01*
X111041904Y-122320000D01*
X111308571Y-122281904D02*
X111499047Y-123081904D01*
X111651428Y-122510476D01*
X111803809Y-123081904D01*
X111994285Y-122281904D01*
X112299047Y-123081904D02*
X112299047Y-122281904D01*
X112489523Y-122281904D01*
X112603809Y-122320000D01*
X112680000Y-122396190D01*
X112718095Y-122472380D01*
X112756190Y-122624761D01*
X112756190Y-122739047D01*
X112718095Y-122891428D01*
X112680000Y-122967619D01*
X112603809Y-123043809D01*
X112489523Y-123081904D01*
X112299047Y-123081904D01*
X113099047Y-123081904D02*
X113099047Y-122281904D01*
X113632380Y-122281904D02*
X113784761Y-122281904D01*
X113860952Y-122320000D01*
X113937142Y-122396190D01*
X113975238Y-122548571D01*
X113975238Y-122815238D01*
X113937142Y-122967619D01*
X113860952Y-123043809D01*
X113784761Y-123081904D01*
X113632380Y-123081904D01*
X113556190Y-123043809D01*
X113480000Y-122967619D01*
X113441904Y-122815238D01*
X113441904Y-122548571D01*
X113480000Y-122396190D01*
X113556190Y-122320000D01*
X113632380Y-122281904D01*
X93166158Y-115718155D02*
X93085346Y-115745093D01*
X93004534Y-115825905D01*
X92950659Y-115933654D01*
X92950659Y-116041404D01*
X92977597Y-116122216D01*
X93058409Y-116256903D01*
X93139221Y-116337715D01*
X93273908Y-116418528D01*
X93354720Y-116445465D01*
X93462470Y-116445465D01*
X93570219Y-116391590D01*
X93624094Y-116337715D01*
X93677969Y-116229966D01*
X93677969Y-116176091D01*
X93489407Y-115987529D01*
X93381658Y-116095279D01*
X93974280Y-115987529D02*
X93408595Y-115421844D01*
X94297529Y-115664280D01*
X93731844Y-115098595D01*
X94566903Y-115394906D02*
X94001218Y-114829221D01*
X94135905Y-114694534D01*
X94243654Y-114640659D01*
X94351404Y-114640659D01*
X94432216Y-114667597D01*
X94566903Y-114748409D01*
X94647715Y-114829221D01*
X94728528Y-114963908D01*
X94755465Y-115044720D01*
X94755465Y-115152470D01*
X94701590Y-115260219D01*
X94566903Y-115394906D01*
X118777722Y-110880592D02*
X118696910Y-110907529D01*
X118616097Y-110988341D01*
X118562223Y-111096091D01*
X118562223Y-111203841D01*
X118589160Y-111284653D01*
X118669972Y-111419340D01*
X118750784Y-111500152D01*
X118885471Y-111580964D01*
X118966284Y-111607902D01*
X119074033Y-111607902D01*
X119181783Y-111554027D01*
X119235658Y-111500152D01*
X119289532Y-111392402D01*
X119289532Y-111338528D01*
X119100971Y-111149966D01*
X118993221Y-111257715D01*
X119585844Y-111149966D02*
X119020158Y-110584280D01*
X119235658Y-110368781D01*
X119316470Y-110341844D01*
X119370345Y-110341844D01*
X119451157Y-110368781D01*
X119531969Y-110449593D01*
X119558906Y-110530406D01*
X119558906Y-110584280D01*
X119531969Y-110665093D01*
X119316470Y-110880592D01*
X120447841Y-110287969D02*
X120124592Y-110611218D01*
X120286216Y-110449593D02*
X119720531Y-109883908D01*
X119747468Y-110018595D01*
X119747468Y-110126345D01*
X119720531Y-110207157D01*
X120717215Y-110018595D02*
X120824964Y-109910845D01*
X120851902Y-109830033D01*
X120851902Y-109776158D01*
X120824964Y-109641471D01*
X120744152Y-109506784D01*
X120528653Y-109291285D01*
X120447841Y-109264348D01*
X120393966Y-109264348D01*
X120313154Y-109291285D01*
X120205404Y-109399035D01*
X120178467Y-109479847D01*
X120178467Y-109533722D01*
X120205404Y-109614534D01*
X120340091Y-109749221D01*
X120420903Y-109776158D01*
X120474778Y-109776158D01*
X120555590Y-109749221D01*
X120663340Y-109641471D01*
X120690277Y-109560659D01*
X120690277Y-109506784D01*
X120663340Y-109425972D01*
X118777722Y-113420592D02*
X118696910Y-113447529D01*
X118616097Y-113528341D01*
X118562223Y-113636091D01*
X118562223Y-113743841D01*
X118589160Y-113824653D01*
X118669972Y-113959340D01*
X118750784Y-114040152D01*
X118885471Y-114120964D01*
X118966284Y-114147902D01*
X119074033Y-114147902D01*
X119181783Y-114094027D01*
X119235658Y-114040152D01*
X119289532Y-113932402D01*
X119289532Y-113878528D01*
X119100971Y-113689966D01*
X118993221Y-113797715D01*
X119585844Y-113689966D02*
X119020158Y-113124280D01*
X119235658Y-112908781D01*
X119316470Y-112881844D01*
X119370345Y-112881844D01*
X119451157Y-112908781D01*
X119531969Y-112989593D01*
X119558906Y-113070406D01*
X119558906Y-113124280D01*
X119531969Y-113205093D01*
X119316470Y-113420592D01*
X120447841Y-112827969D02*
X120124592Y-113151218D01*
X120286216Y-112989593D02*
X119720531Y-112423908D01*
X119747468Y-112558595D01*
X119747468Y-112666345D01*
X119720531Y-112747157D01*
X120447841Y-112181471D02*
X120367028Y-112208409D01*
X120313154Y-112208409D01*
X120232341Y-112181471D01*
X120205404Y-112154534D01*
X120178467Y-112073722D01*
X120178467Y-112019847D01*
X120205404Y-111939035D01*
X120313154Y-111831285D01*
X120393966Y-111804348D01*
X120447841Y-111804348D01*
X120528653Y-111831285D01*
X120555590Y-111858223D01*
X120582528Y-111939035D01*
X120582528Y-111992910D01*
X120555590Y-112073722D01*
X120447841Y-112181471D01*
X120420903Y-112262284D01*
X120420903Y-112316158D01*
X120447841Y-112396971D01*
X120555590Y-112504720D01*
X120636402Y-112531658D01*
X120690277Y-112531658D01*
X120771089Y-112504720D01*
X120878839Y-112396971D01*
X120905776Y-112316158D01*
X120905776Y-112262284D01*
X120878839Y-112181471D01*
X120771089Y-112073722D01*
X120690277Y-112046784D01*
X120636402Y-112046784D01*
X120555590Y-112073722D01*
X92623722Y-118500592D02*
X92542910Y-118527529D01*
X92462097Y-118608341D01*
X92408223Y-118716091D01*
X92408223Y-118823841D01*
X92435160Y-118904653D01*
X92515972Y-119039340D01*
X92596784Y-119120152D01*
X92731471Y-119200964D01*
X92812284Y-119227902D01*
X92920033Y-119227902D01*
X93027783Y-119174027D01*
X93081658Y-119120152D01*
X93135532Y-119012402D01*
X93135532Y-118958528D01*
X92946971Y-118769966D01*
X92839221Y-118877715D01*
X93431844Y-118769966D02*
X92866158Y-118204280D01*
X93081658Y-117988781D01*
X93162470Y-117961844D01*
X93216345Y-117961844D01*
X93297157Y-117988781D01*
X93377969Y-118069593D01*
X93404906Y-118150406D01*
X93404906Y-118204280D01*
X93377969Y-118285093D01*
X93162470Y-118500592D01*
X94293841Y-117907969D02*
X93970592Y-118231218D01*
X94132216Y-118069593D02*
X93566531Y-117503908D01*
X93593468Y-117638595D01*
X93593468Y-117746345D01*
X93566531Y-117827157D01*
X94401590Y-117045972D02*
X94778714Y-117423096D01*
X94051404Y-116965160D02*
X94320778Y-117503908D01*
X94670964Y-117153722D01*
X92523722Y-110880592D02*
X92442910Y-110907529D01*
X92362097Y-110988341D01*
X92308223Y-111096091D01*
X92308223Y-111203841D01*
X92335160Y-111284653D01*
X92415972Y-111419340D01*
X92496784Y-111500152D01*
X92631471Y-111580964D01*
X92712284Y-111607902D01*
X92820033Y-111607902D01*
X92927783Y-111554027D01*
X92981658Y-111500152D01*
X93035532Y-111392402D01*
X93035532Y-111338528D01*
X92846971Y-111149966D01*
X92739221Y-111257715D01*
X93331844Y-111149966D02*
X92766158Y-110584280D01*
X92981658Y-110368781D01*
X93062470Y-110341844D01*
X93116345Y-110341844D01*
X93197157Y-110368781D01*
X93277969Y-110449593D01*
X93304906Y-110530406D01*
X93304906Y-110584280D01*
X93277969Y-110665093D01*
X93062470Y-110880592D01*
X94193841Y-110287969D02*
X93870592Y-110611218D01*
X94032216Y-110449593D02*
X93466531Y-109883908D01*
X93493468Y-110018595D01*
X93493468Y-110126345D01*
X93466531Y-110207157D01*
X93897529Y-109560659D02*
X93897529Y-109506784D01*
X93924467Y-109425972D01*
X94059154Y-109291285D01*
X94139966Y-109264348D01*
X94193841Y-109264348D01*
X94274653Y-109291285D01*
X94328528Y-109345160D01*
X94382402Y-109452910D01*
X94382402Y-110099407D01*
X94732589Y-109749221D01*
%TO.C,J2*%
X100631666Y-126452380D02*
X100631666Y-127166666D01*
X100584047Y-127309523D01*
X100488809Y-127404761D01*
X100345952Y-127452380D01*
X100250714Y-127452380D01*
X101060238Y-126547619D02*
X101107857Y-126500000D01*
X101203095Y-126452380D01*
X101441190Y-126452380D01*
X101536428Y-126500000D01*
X101584047Y-126547619D01*
X101631666Y-126642857D01*
X101631666Y-126738095D01*
X101584047Y-126880952D01*
X101012619Y-127452380D01*
X101631666Y-127452380D01*
%TO.C,J1*%
X118411666Y-123277380D02*
X118411666Y-123991666D01*
X118364047Y-124134523D01*
X118268809Y-124229761D01*
X118125952Y-124277380D01*
X118030714Y-124277380D01*
X119411666Y-124277380D02*
X118840238Y-124277380D01*
X119125952Y-124277380D02*
X119125952Y-123277380D01*
X119030714Y-123420238D01*
X118935476Y-123515476D01*
X118840238Y-123563095D01*
D13*
%TO.C,J2*%
X105410000Y-128126800D02*
X110550000Y-128126800D01*
X105410000Y-125466800D02*
X110550000Y-125466800D01*
X102810000Y-128126800D02*
X102810000Y-126796800D01*
X104140000Y-128126800D02*
X102810000Y-128126800D01*
X110550000Y-128126800D02*
X110550000Y-125466800D01*
X105410000Y-128126800D02*
X105410000Y-125466800D01*
%TO.C,J1*%
X111332500Y-130675000D02*
X112332500Y-130175000D01*
X117952500Y-145545000D02*
X117952500Y-124965000D01*
X117952500Y-124965000D02*
X127072500Y-124965000D01*
X117952500Y-137305000D02*
X127072500Y-137305000D01*
X127072500Y-124965000D02*
X127072500Y-145545000D01*
X117952500Y-133205000D02*
X127072500Y-133205000D01*
X127072500Y-145545000D02*
X117952500Y-145545000D01*
X112332500Y-130175000D02*
X111332500Y-129675000D01*
X111332500Y-129675000D02*
X111332500Y-130675000D01*
%TD*%
M02*
