%TF.GenerationSoftware,KiCad,Pcbnew,(6.0.8)*%
%TF.CreationDate,2022-10-05T13:18:44+02:00*%
%TF.ProjectId,Pico_Interface,5069636f-5f49-46e7-9465-72666163652e,rev?*%
%TF.SameCoordinates,Original*%
%TF.FileFunction,Copper,L1,Top*%
%TF.FilePolarity,Positive*%
%FSLAX46Y46*%
G04 Gerber Fmt 4.6, Leading zero omitted, Abs format (unit mm)*
G04 Created by KiCad (PCBNEW (6.0.8)) date 2022-10-05 13:18:44*
%MOMM*%
%LPD*%
G01*
G04 APERTURE LIST*
G04 Aperture macros list*
%AMRoundRect*
0 Rectangle with rounded corners*
0 $1 Rounding radius*
0 $2 $3 $4 $5 $6 $7 $8 $9 X,Y pos of 4 corners*
0 Add a 4 corners polygon primitive as box body*
4,1,4,$2,$3,$4,$5,$6,$7,$8,$9,$2,$3,0*
0 Add four circle primitives for the rounded corners*
1,1,$1+$1,$2,$3*
1,1,$1+$1,$4,$5*
1,1,$1+$1,$6,$7*
1,1,$1+$1,$8,$9*
0 Add four rect primitives between the rounded corners*
20,1,$1+$1,$2,$3,$4,$5,0*
20,1,$1+$1,$4,$5,$6,$7,0*
20,1,$1+$1,$6,$7,$8,$9,0*
20,1,$1+$1,$8,$9,$2,$3,0*%
G04 Aperture macros list end*
%TA.AperFunction,Profile*%
%ADD10C,0.100000*%
%TD*%
%TA.AperFunction,ComponentPad*%
%ADD11O,1.700000X1.700000*%
%TD*%
%TA.AperFunction,SMDPad,CuDef*%
%ADD12R,3.500000X1.700000*%
%TD*%
%TA.AperFunction,ComponentPad*%
%ADD13R,1.700000X1.700000*%
%TD*%
%TA.AperFunction,SMDPad,CuDef*%
%ADD14R,1.700000X3.500000*%
%TD*%
%TA.AperFunction,ComponentPad*%
%ADD15C,1.700000*%
%TD*%
%TA.AperFunction,ComponentPad*%
%ADD16RoundRect,0.250000X-0.600000X-0.600000X0.600000X-0.600000X0.600000X0.600000X-0.600000X0.600000X0*%
%TD*%
%TA.AperFunction,Conductor*%
%ADD17C,1.250000*%
%TD*%
G04 APERTURE END LIST*
D10*
X85090000Y-106680000D02*
X127635000Y-106680000D01*
X127635000Y-106680000D02*
X127635000Y-147320000D01*
X127635000Y-147320000D02*
X85090000Y-147320000D01*
X85090000Y-147320000D02*
X85090000Y-106680000D01*
D11*
%TO.P,U1,15,GPIO11*%
%TO.N,unconnected-(U1-Pad15)*%
X97790000Y-107950000D03*
D12*
%TO.P,U1,16,GPIO12*%
%TO.N,Net-(U1-Pad16)*%
X96890000Y-110490000D03*
D11*
X97790000Y-110490000D03*
D12*
%TO.P,U1,17,GPIO13*%
%TO.N,Net-(U1-Pad17)*%
X96890000Y-113030000D03*
D11*
X97790000Y-113030000D03*
D12*
%TO.P,U1,18,GND*%
%TO.N,GND*%
X96890000Y-115570000D03*
D13*
X97790000Y-115570000D03*
D11*
%TO.P,U1,19,GPIO14*%
%TO.N,Net-(U1-Pad19)*%
X97790000Y-118110000D03*
D12*
X96890000Y-118110000D03*
%TO.P,U1,20,GPIO15*%
%TO.N,Net-(U1-Pad20)*%
X96890000Y-120650000D03*
D11*
X97790000Y-120650000D03*
D12*
%TO.P,U1,21,GPIO16*%
%TO.N,Net-(U1-Pad21)*%
X116470000Y-120650000D03*
D11*
X115570000Y-120650000D03*
D12*
%TO.P,U1,22,GPIO17*%
%TO.N,Net-(U1-Pad22)*%
X116470000Y-118110000D03*
D11*
X115570000Y-118110000D03*
D12*
%TO.P,U1,23,GND*%
%TO.N,GND*%
X116470000Y-115570000D03*
D13*
X115570000Y-115570000D03*
D11*
%TO.P,U1,24,GPIO18*%
%TO.N,Net-(U1-Pad24)*%
X115570000Y-113030000D03*
D12*
X116470000Y-113030000D03*
%TO.P,U1,25,GPIO19*%
%TO.N,Net-(U1-Pad25)*%
X116470000Y-110490000D03*
D11*
X115570000Y-110490000D03*
%TO.P,U1,26,GPIO20*%
%TO.N,unconnected-(U1-Pad26)*%
X115570000Y-107950000D03*
D14*
%TO.P,U1,41,SWCLK*%
%TO.N,Net-(U1-Pad41)*%
X104140000Y-121320000D03*
D11*
X104140000Y-120420000D03*
D13*
%TO.P,U1,42,GND*%
%TO.N,GND*%
X106680000Y-120420000D03*
D14*
X106680000Y-121320000D03*
D11*
%TO.P,U1,43,SWDIO*%
%TO.N,Net-(U1-Pad43)*%
X109220000Y-120420000D03*
D14*
X109220000Y-121320000D03*
%TD*%
D13*
%TO.P,J2,1,Pin_1*%
%TO.N,Net-(U1-Pad41)*%
X104140000Y-126796800D03*
D11*
%TO.P,J2,2,Pin_2*%
%TO.N,GND*%
X106680000Y-126796800D03*
%TO.P,J2,3,Pin_3*%
%TO.N,Net-(U1-Pad43)*%
X109220000Y-126796800D03*
%TD*%
D15*
%TO.P,J1,10,Pin_10*%
%TO.N,GND*%
X116222500Y-140335000D03*
%TO.P,J1,9,Pin_9*%
X113682500Y-140335000D03*
%TO.P,J1,8,Pin_8*%
%TO.N,Net-(U1-Pad25)*%
X116222500Y-137795000D03*
%TO.P,J1,7,Pin_7*%
%TO.N,Net-(U1-Pad16)*%
X113682500Y-137795000D03*
%TO.P,J1,6,Pin_6*%
%TO.N,Net-(U1-Pad24)*%
X116222500Y-135255000D03*
%TO.P,J1,5,Pin_5*%
%TO.N,Net-(U1-Pad17)*%
X113682500Y-135255000D03*
%TO.P,J1,4,Pin_4*%
%TO.N,Net-(U1-Pad22)*%
X116222500Y-132715000D03*
%TO.P,J1,3,Pin_3*%
%TO.N,Net-(U1-Pad19)*%
X113682500Y-132715000D03*
%TO.P,J1,2,Pin_2*%
%TO.N,Net-(U1-Pad21)*%
X116222500Y-130175000D03*
D16*
%TO.P,J1,1,Pin_1*%
%TO.N,Net-(U1-Pad20)*%
X113682500Y-130175000D03*
%TD*%
D17*
%TO.N,Net-(U1-Pad25)*%
X125095000Y-132715000D02*
X125095000Y-113030000D01*
X122555000Y-110490000D02*
X115570000Y-110490000D01*
X120015000Y-137795000D02*
X125095000Y-132715000D01*
X125095000Y-113030000D02*
X122555000Y-110490000D01*
X116222500Y-137795000D02*
X120015000Y-137795000D01*
%TO.N,Net-(U1-Pad24)*%
X122555000Y-114300000D02*
X121285000Y-113030000D01*
X122555000Y-131445000D02*
X122555000Y-114300000D01*
X121285000Y-113030000D02*
X115570000Y-113030000D01*
X118745000Y-135255000D02*
X122555000Y-131445000D01*
X116222500Y-135255000D02*
X118745000Y-135255000D01*
%TO.N,Net-(U1-Pad22)*%
X117475000Y-132715000D02*
X120015000Y-130175000D01*
X116222500Y-132715000D02*
X117475000Y-132715000D01*
X120015000Y-130175000D02*
X120015000Y-119380000D01*
%TO.N,Net-(U1-Pad21)*%
X116222500Y-121302500D02*
X115570000Y-120650000D01*
X116222500Y-130175000D02*
X116222500Y-121302500D01*
%TO.N,Net-(U1-Pad16)*%
X89535000Y-137795000D02*
X113682500Y-137795000D01*
X86995000Y-135255000D02*
X89535000Y-137795000D01*
X91440000Y-110490000D02*
X86995000Y-114935000D01*
X86995000Y-114935000D02*
X86995000Y-135255000D01*
X97790000Y-110490000D02*
X91440000Y-110490000D01*
%TO.N,Net-(U1-Pad17)*%
X92075000Y-135255000D02*
X113682500Y-135255000D01*
X90170000Y-133350000D02*
X92075000Y-135255000D01*
X90170000Y-115570000D02*
X90170000Y-133350000D01*
X92710000Y-113030000D02*
X90170000Y-115570000D01*
%TO.N,Net-(U1-Pad19)*%
X93027500Y-119062500D02*
X93027500Y-131127500D01*
X93980000Y-118110000D02*
X93027500Y-119062500D01*
X94615000Y-132715000D02*
X93027500Y-131127500D01*
X97790000Y-118110000D02*
X93980000Y-118110000D01*
X113682500Y-132715000D02*
X94615000Y-132715000D01*
%TO.N,Net-(U1-Pad20)*%
X97155000Y-130175000D02*
X96520000Y-129540000D01*
X113682500Y-130175000D02*
X97155000Y-130175000D01*
X96520000Y-121920000D02*
X97790000Y-120650000D01*
X96520000Y-129540000D02*
X96520000Y-121920000D01*
%TO.N,Net-(U1-Pad22)*%
X120015000Y-119380000D02*
X118745000Y-118110000D01*
X118745000Y-118110000D02*
X115570000Y-118110000D01*
%TO.N,Net-(U1-Pad17)*%
X92710000Y-113030000D02*
X97790000Y-113030000D01*
%TO.N,GND*%
X106680000Y-115570000D02*
X106680000Y-120420000D01*
X97790000Y-115570000D02*
X106680000Y-115570000D01*
X106680000Y-120420000D02*
X106680000Y-126796800D01*
X106680000Y-115570000D02*
X115570000Y-115570000D01*
%TO.N,Net-(U1-Pad41)*%
X104140000Y-120420000D02*
X104140000Y-126796800D01*
%TO.N,Net-(U1-Pad43)*%
X109220000Y-120420000D02*
X109220000Y-126796800D01*
%TD*%
%TA.AperFunction,Conductor*%
%TO.N,GND*%
G36*
X126942121Y-107335002D02*
G01*
X126988614Y-107388658D01*
X127000000Y-107441000D01*
X127000000Y-146559000D01*
X126979998Y-146627121D01*
X126926342Y-146673614D01*
X126874000Y-146685000D01*
X85851000Y-146685000D01*
X85782879Y-146664998D01*
X85736386Y-146611342D01*
X85725000Y-146559000D01*
X85725000Y-141459853D01*
X112922477Y-141459853D01*
X112927758Y-141466907D01*
X113089256Y-141561279D01*
X113098542Y-141565729D01*
X113297501Y-141641703D01*
X113307399Y-141644579D01*
X113516095Y-141687038D01*
X113526323Y-141688257D01*
X113739150Y-141696062D01*
X113749436Y-141695595D01*
X113960685Y-141668534D01*
X113970762Y-141666392D01*
X114174755Y-141605191D01*
X114184342Y-141601433D01*
X114375598Y-141507738D01*
X114384444Y-141502465D01*
X114431747Y-141468723D01*
X114438711Y-141459853D01*
X115462477Y-141459853D01*
X115467758Y-141466907D01*
X115629256Y-141561279D01*
X115638542Y-141565729D01*
X115837501Y-141641703D01*
X115847399Y-141644579D01*
X116056095Y-141687038D01*
X116066323Y-141688257D01*
X116279150Y-141696062D01*
X116289436Y-141695595D01*
X116500685Y-141668534D01*
X116510762Y-141666392D01*
X116714755Y-141605191D01*
X116724342Y-141601433D01*
X116915598Y-141507738D01*
X116924444Y-141502465D01*
X116971747Y-141468723D01*
X116980148Y-141458023D01*
X116973160Y-141444870D01*
X116235312Y-140707022D01*
X116221368Y-140699408D01*
X116219535Y-140699539D01*
X116212920Y-140703790D01*
X115469237Y-141447473D01*
X115462477Y-141459853D01*
X114438711Y-141459853D01*
X114440148Y-141458023D01*
X114433160Y-141444870D01*
X113695312Y-140707022D01*
X113681368Y-140699408D01*
X113679535Y-140699539D01*
X113672920Y-140703790D01*
X112929237Y-141447473D01*
X112922477Y-141459853D01*
X85725000Y-141459853D01*
X85725000Y-140306863D01*
X112320550Y-140306863D01*
X112332809Y-140519477D01*
X112334245Y-140529697D01*
X112381065Y-140737446D01*
X112384145Y-140747275D01*
X112464270Y-140944603D01*
X112468913Y-140953794D01*
X112548960Y-141084420D01*
X112559416Y-141093880D01*
X112568194Y-141090096D01*
X113310478Y-140347812D01*
X113316856Y-140336132D01*
X114046908Y-140336132D01*
X114047039Y-140337965D01*
X114051290Y-140344580D01*
X114792974Y-141086264D01*
X114804984Y-141092823D01*
X114816723Y-141083855D01*
X114850522Y-141036819D01*
X114851649Y-141037629D01*
X114899159Y-140993881D01*
X114969096Y-140981661D01*
X115034538Y-141009191D01*
X115062370Y-141041029D01*
X115088959Y-141084419D01*
X115099416Y-141093880D01*
X115108194Y-141090096D01*
X115850478Y-140347812D01*
X115856856Y-140336132D01*
X116586908Y-140336132D01*
X116587039Y-140337965D01*
X116591290Y-140344580D01*
X117332974Y-141086264D01*
X117344984Y-141092823D01*
X117356723Y-141083855D01*
X117387504Y-141041019D01*
X117392815Y-141032180D01*
X117487170Y-140841267D01*
X117490969Y-140831672D01*
X117552876Y-140627915D01*
X117555055Y-140617834D01*
X117583090Y-140404887D01*
X117583609Y-140398212D01*
X117585072Y-140338364D01*
X117584878Y-140331646D01*
X117567281Y-140117604D01*
X117565596Y-140107424D01*
X117513714Y-139900875D01*
X117510394Y-139891124D01*
X117425472Y-139695814D01*
X117420605Y-139686739D01*
X117355563Y-139586197D01*
X117344877Y-139576995D01*
X117335312Y-139581398D01*
X116594522Y-140322188D01*
X116586908Y-140336132D01*
X115856856Y-140336132D01*
X115858092Y-140333868D01*
X115857961Y-140332035D01*
X115853710Y-140325420D01*
X115112349Y-139584059D01*
X115100813Y-139577759D01*
X115088528Y-139587384D01*
X115055692Y-139635520D01*
X115000781Y-139680523D01*
X114930256Y-139688694D01*
X114866509Y-139657440D01*
X114845811Y-139632955D01*
X114815562Y-139586197D01*
X114804877Y-139576995D01*
X114795312Y-139581398D01*
X114054522Y-140322188D01*
X114046908Y-140336132D01*
X113316856Y-140336132D01*
X113318092Y-140333868D01*
X113317961Y-140332035D01*
X113313710Y-140325420D01*
X112572349Y-139584059D01*
X112560813Y-139577759D01*
X112548531Y-139587382D01*
X112500589Y-139657662D01*
X112495504Y-139666613D01*
X112405838Y-139859783D01*
X112402275Y-139869470D01*
X112345364Y-140074681D01*
X112343433Y-140084800D01*
X112320802Y-140296574D01*
X112320550Y-140306863D01*
X85725000Y-140306863D01*
X85725000Y-135784563D01*
X85745002Y-135716442D01*
X85798658Y-135669949D01*
X85868932Y-135659845D01*
X85933512Y-135689339D01*
X85963013Y-135726864D01*
X85966146Y-135732949D01*
X85970061Y-135741286D01*
X85994329Y-135798320D01*
X85997680Y-135803297D01*
X86013556Y-135826879D01*
X86021052Y-135839554D01*
X86036809Y-135870148D01*
X86075083Y-135918874D01*
X86080506Y-135926324D01*
X86101211Y-135957077D01*
X86115122Y-135977740D01*
X86118945Y-135981956D01*
X86140138Y-136003149D01*
X86150128Y-136014410D01*
X86170417Y-136040239D01*
X86174947Y-136044170D01*
X86174948Y-136044171D01*
X86218564Y-136082019D01*
X86225078Y-136088089D01*
X88658280Y-138521291D01*
X88665444Y-138529776D01*
X88665657Y-138529592D01*
X88669572Y-138534128D01*
X88673043Y-138539021D01*
X88677374Y-138543167D01*
X88741553Y-138604605D01*
X88743517Y-138606528D01*
X88771707Y-138634718D01*
X88774019Y-138636627D01*
X88774022Y-138636630D01*
X88777624Y-138639604D01*
X88784521Y-138645739D01*
X88824946Y-138684437D01*
X88824950Y-138684440D01*
X88829285Y-138688590D01*
X88834324Y-138691843D01*
X88834327Y-138691846D01*
X88858200Y-138707260D01*
X88870083Y-138715958D01*
X88896625Y-138737876D01*
X88951019Y-138767594D01*
X88958939Y-138772307D01*
X89005946Y-138802659D01*
X89005950Y-138802661D01*
X89010991Y-138805916D01*
X89042920Y-138818784D01*
X89056223Y-138825072D01*
X89086435Y-138841579D01*
X89092143Y-138843406D01*
X89092145Y-138843407D01*
X89145445Y-138860468D01*
X89154132Y-138863604D01*
X89206045Y-138884526D01*
X89206048Y-138884527D01*
X89211604Y-138886766D01*
X89217488Y-138887915D01*
X89245387Y-138893363D01*
X89259653Y-138897026D01*
X89286712Y-138905688D01*
X89286722Y-138905690D01*
X89292432Y-138907518D01*
X89353953Y-138914908D01*
X89363052Y-138916341D01*
X89423887Y-138928222D01*
X89429571Y-138928500D01*
X89459544Y-138928500D01*
X89474572Y-138929399D01*
X89501231Y-138932602D01*
X89501237Y-138932602D01*
X89507179Y-138933316D01*
X89513155Y-138932893D01*
X89513158Y-138932893D01*
X89570750Y-138928815D01*
X89579649Y-138928500D01*
X112895377Y-138928500D01*
X112958950Y-138945714D01*
X112974457Y-138954776D01*
X113023179Y-139006415D01*
X113036249Y-139076198D01*
X113009516Y-139141970D01*
X112969064Y-139175325D01*
X112960966Y-139179540D01*
X112952234Y-139185039D01*
X112932177Y-139200099D01*
X112923723Y-139211427D01*
X112930468Y-139223758D01*
X113669688Y-139962978D01*
X113683632Y-139970592D01*
X113685465Y-139970461D01*
X113692080Y-139966210D01*
X114435889Y-139222401D01*
X114442910Y-139209544D01*
X114436111Y-139200213D01*
X114432059Y-139197521D01*
X114395102Y-139177120D01*
X114345131Y-139126687D01*
X114330359Y-139057245D01*
X114355475Y-138990839D01*
X114382827Y-138964232D01*
X114430164Y-138930467D01*
X114562360Y-138836173D01*
X114720596Y-138678489D01*
X114741167Y-138649862D01*
X114850953Y-138497077D01*
X114852276Y-138498028D01*
X114899145Y-138454857D01*
X114969080Y-138442625D01*
X115034526Y-138470144D01*
X115062375Y-138501994D01*
X115122487Y-138600088D01*
X115125867Y-138603990D01*
X115135449Y-138615052D01*
X115268750Y-138768938D01*
X115440626Y-138911632D01*
X115473083Y-138930598D01*
X115514455Y-138954774D01*
X115563179Y-139006412D01*
X115576250Y-139076195D01*
X115549519Y-139141967D01*
X115509062Y-139175327D01*
X115500960Y-139179544D01*
X115492234Y-139185039D01*
X115472177Y-139200099D01*
X115463723Y-139211427D01*
X115470468Y-139223758D01*
X116209688Y-139962978D01*
X116223632Y-139970592D01*
X116225465Y-139970461D01*
X116232080Y-139966210D01*
X116975889Y-139222401D01*
X116982910Y-139209544D01*
X116976111Y-139200213D01*
X116972059Y-139197521D01*
X116935102Y-139177120D01*
X116885131Y-139126687D01*
X116870359Y-139057245D01*
X116895475Y-138990839D01*
X116922828Y-138964231D01*
X116940088Y-138951920D01*
X117013255Y-138928500D01*
X119908633Y-138928500D01*
X119919694Y-138929433D01*
X119919715Y-138929153D01*
X119925688Y-138929592D01*
X119931607Y-138930598D01*
X120026371Y-138928530D01*
X120029119Y-138928500D01*
X120069041Y-138928500D01*
X120076705Y-138927769D01*
X120085901Y-138927231D01*
X120121565Y-138926453D01*
X120141852Y-138926010D01*
X120141853Y-138926010D01*
X120147848Y-138925879D01*
X120181495Y-138918635D01*
X120196044Y-138916383D01*
X120218481Y-138914242D01*
X120230315Y-138913113D01*
X120249387Y-138907518D01*
X120289768Y-138895671D01*
X120298719Y-138893397D01*
X120298877Y-138893363D01*
X120359295Y-138880356D01*
X120390966Y-138866880D01*
X120404827Y-138861917D01*
X120437860Y-138852226D01*
X120492941Y-138823858D01*
X120501286Y-138819939D01*
X120558320Y-138795671D01*
X120586879Y-138776444D01*
X120599554Y-138768948D01*
X120607159Y-138765031D01*
X120630148Y-138753191D01*
X120678874Y-138714917D01*
X120686324Y-138709494D01*
X120733981Y-138677409D01*
X120733983Y-138677407D01*
X120737740Y-138674878D01*
X120741956Y-138671055D01*
X120763149Y-138649862D01*
X120774411Y-138639871D01*
X120795522Y-138623288D01*
X120800239Y-138619583D01*
X120842020Y-138571435D01*
X120848089Y-138564922D01*
X125821291Y-133591720D01*
X125829776Y-133584556D01*
X125829592Y-133584343D01*
X125834128Y-133580428D01*
X125839021Y-133576957D01*
X125904605Y-133508447D01*
X125906528Y-133506483D01*
X125934718Y-133478293D01*
X125939607Y-133472373D01*
X125945739Y-133465479D01*
X125984437Y-133425054D01*
X125984440Y-133425050D01*
X125988590Y-133420715D01*
X126001295Y-133401039D01*
X126007260Y-133391800D01*
X126015958Y-133379916D01*
X126034052Y-133358006D01*
X126034054Y-133358004D01*
X126037876Y-133353375D01*
X126067593Y-133298983D01*
X126072315Y-133291047D01*
X126102657Y-133244056D01*
X126105916Y-133239009D01*
X126118787Y-133207072D01*
X126125073Y-133193776D01*
X126141579Y-133163564D01*
X126160468Y-133104554D01*
X126163604Y-133095867D01*
X126184526Y-133043954D01*
X126186766Y-133038396D01*
X126193363Y-133004615D01*
X126197025Y-132990353D01*
X126205689Y-132963288D01*
X126205691Y-132963278D01*
X126207519Y-132957568D01*
X126208235Y-132951612D01*
X126208236Y-132951605D01*
X126214911Y-132896045D01*
X126216347Y-132886925D01*
X126227353Y-132830562D01*
X126228222Y-132826113D01*
X126228500Y-132820429D01*
X126228500Y-132790455D01*
X126229399Y-132775427D01*
X126232602Y-132748767D01*
X126232602Y-132748763D01*
X126233316Y-132742820D01*
X126228815Y-132679249D01*
X126228500Y-132670350D01*
X126228500Y-113136367D01*
X126229433Y-113125306D01*
X126229153Y-113125285D01*
X126229592Y-113119312D01*
X126230598Y-113113393D01*
X126228530Y-113018629D01*
X126228500Y-113015881D01*
X126228500Y-112975959D01*
X126227769Y-112968295D01*
X126227231Y-112959094D01*
X126226010Y-112903150D01*
X126226010Y-112903149D01*
X126225879Y-112897152D01*
X126218634Y-112863500D01*
X126216382Y-112848948D01*
X126213683Y-112820662D01*
X126213113Y-112814685D01*
X126195671Y-112755231D01*
X126193400Y-112746286D01*
X126181621Y-112691577D01*
X126181619Y-112691571D01*
X126180356Y-112685704D01*
X126166875Y-112654020D01*
X126161921Y-112640185D01*
X126152226Y-112607140D01*
X126123855Y-112552055D01*
X126119930Y-112543695D01*
X126098018Y-112492198D01*
X126098018Y-112492197D01*
X126095670Y-112486680D01*
X126076447Y-112458127D01*
X126068951Y-112445452D01*
X126055937Y-112420183D01*
X126055935Y-112420180D01*
X126053191Y-112414852D01*
X126036794Y-112393978D01*
X126014922Y-112366133D01*
X126009488Y-112358667D01*
X125977413Y-112311025D01*
X125977409Y-112311019D01*
X125974877Y-112307259D01*
X125971055Y-112303044D01*
X125949862Y-112281851D01*
X125939871Y-112270589D01*
X125919583Y-112244761D01*
X125871435Y-112202980D01*
X125864922Y-112196911D01*
X123431720Y-109763709D01*
X123424556Y-109755224D01*
X123424343Y-109755408D01*
X123420428Y-109750872D01*
X123416957Y-109745979D01*
X123348447Y-109680395D01*
X123346483Y-109678472D01*
X123318293Y-109650282D01*
X123312373Y-109645393D01*
X123305479Y-109639261D01*
X123265054Y-109600563D01*
X123265050Y-109600560D01*
X123260715Y-109596410D01*
X123255676Y-109593157D01*
X123255673Y-109593154D01*
X123231800Y-109577740D01*
X123219916Y-109569042D01*
X123197997Y-109550941D01*
X123197998Y-109550941D01*
X123193375Y-109547124D01*
X123138981Y-109517406D01*
X123131061Y-109512693D01*
X123084054Y-109482341D01*
X123084050Y-109482339D01*
X123079009Y-109479084D01*
X123047080Y-109466216D01*
X123033778Y-109459928D01*
X123008829Y-109446297D01*
X123003565Y-109443421D01*
X122997860Y-109441595D01*
X122997858Y-109441594D01*
X122965033Y-109431087D01*
X122944545Y-109424529D01*
X122935865Y-109421395D01*
X122883959Y-109400476D01*
X122878396Y-109398234D01*
X122872510Y-109397084D01*
X122872508Y-109397084D01*
X122844615Y-109391637D01*
X122830351Y-109387975D01*
X122803273Y-109379307D01*
X122803271Y-109379307D01*
X122797568Y-109377481D01*
X122791619Y-109376766D01*
X122791613Y-109376765D01*
X122736045Y-109370089D01*
X122726925Y-109368653D01*
X122677440Y-109358990D01*
X122666113Y-109356778D01*
X122660429Y-109356500D01*
X122630455Y-109356500D01*
X122615427Y-109355601D01*
X122588767Y-109352398D01*
X122588763Y-109352398D01*
X122582820Y-109351684D01*
X122576844Y-109352107D01*
X122576841Y-109352107D01*
X122519249Y-109356185D01*
X122510350Y-109356500D01*
X118706066Y-109356500D01*
X118637945Y-109336498D01*
X118605242Y-109306068D01*
X118583261Y-109276739D01*
X118466705Y-109189385D01*
X118330316Y-109138255D01*
X118268134Y-109131500D01*
X116613986Y-109131500D01*
X116545865Y-109111498D01*
X116499372Y-109057842D01*
X116489268Y-108987568D01*
X116518762Y-108922988D01*
X116525047Y-108916249D01*
X116604430Y-108837144D01*
X116604440Y-108837132D01*
X116608096Y-108833489D01*
X116667594Y-108750689D01*
X116735435Y-108656277D01*
X116738453Y-108652077D01*
X116837430Y-108451811D01*
X116902370Y-108238069D01*
X116931529Y-108016590D01*
X116933156Y-107950000D01*
X116914852Y-107727361D01*
X116860431Y-107510702D01*
X116851969Y-107491240D01*
X116843149Y-107420796D01*
X116873816Y-107356764D01*
X116934233Y-107319476D01*
X116967519Y-107315000D01*
X126874000Y-107315000D01*
X126942121Y-107335002D01*
G37*
%TD.AperFunction*%
%TA.AperFunction,Conductor*%
G36*
X114239096Y-107335002D02*
G01*
X114285589Y-107388658D01*
X114295693Y-107458932D01*
X114290552Y-107479267D01*
X114290688Y-107479305D01*
X114230989Y-107694570D01*
X114207251Y-107916695D01*
X114207548Y-107921848D01*
X114207548Y-107921851D01*
X114213011Y-108016590D01*
X114220110Y-108139715D01*
X114221247Y-108144761D01*
X114221248Y-108144767D01*
X114241119Y-108232939D01*
X114269222Y-108357639D01*
X114353266Y-108564616D01*
X114469987Y-108755088D01*
X114616250Y-108923938D01*
X114620230Y-108927242D01*
X114624981Y-108931187D01*
X114664616Y-108990090D01*
X114666113Y-109061071D01*
X114628997Y-109121593D01*
X114588724Y-109146112D01*
X114473295Y-109189385D01*
X114356739Y-109276739D01*
X114269385Y-109393295D01*
X114218255Y-109529684D01*
X114211500Y-109591866D01*
X114211500Y-110410219D01*
X114210787Y-110423607D01*
X114207251Y-110456695D01*
X114207548Y-110461848D01*
X114207548Y-110461851D01*
X114211291Y-110526763D01*
X114211500Y-110534016D01*
X114211500Y-111388134D01*
X114218255Y-111450316D01*
X114269385Y-111586705D01*
X114342627Y-111684431D01*
X114342630Y-111684435D01*
X114367478Y-111750941D01*
X114352425Y-111820324D01*
X114342632Y-111835562D01*
X114269385Y-111933295D01*
X114218255Y-112069684D01*
X114211500Y-112131866D01*
X114211500Y-112950219D01*
X114210787Y-112963607D01*
X114207251Y-112996695D01*
X114207548Y-113001848D01*
X114207548Y-113001851D01*
X114211291Y-113066763D01*
X114211500Y-113074016D01*
X114211500Y-113928134D01*
X114218255Y-113990316D01*
X114269385Y-114126705D01*
X114301515Y-114169576D01*
X114342942Y-114224852D01*
X114367790Y-114291358D01*
X114352737Y-114360741D01*
X114342942Y-114375982D01*
X114275214Y-114466351D01*
X114266676Y-114481946D01*
X114221522Y-114602394D01*
X114217895Y-114617649D01*
X114212369Y-114668514D01*
X114212000Y-114675328D01*
X114212000Y-115297885D01*
X114216475Y-115313124D01*
X114217865Y-115314329D01*
X114225548Y-115316000D01*
X118709884Y-115316000D01*
X118725123Y-115311525D01*
X118726328Y-115310135D01*
X118727999Y-115302452D01*
X118727999Y-114675331D01*
X118727629Y-114668510D01*
X118722105Y-114617648D01*
X118718479Y-114602396D01*
X118673324Y-114481946D01*
X118664786Y-114466351D01*
X118597058Y-114375982D01*
X118572210Y-114309475D01*
X118587263Y-114240093D01*
X118597059Y-114224851D01*
X118605241Y-114213934D01*
X118662100Y-114171419D01*
X118706066Y-114163500D01*
X120763299Y-114163500D01*
X120831420Y-114183502D01*
X120852394Y-114200405D01*
X121384595Y-114732606D01*
X121418621Y-114794918D01*
X121421500Y-114821701D01*
X121421500Y-130923299D01*
X121401498Y-130991420D01*
X121384595Y-131012394D01*
X118312394Y-134084595D01*
X118250082Y-134118621D01*
X118223299Y-134121500D01*
X117012773Y-134121500D01*
X116951879Y-134105808D01*
X116935554Y-134096796D01*
X116885583Y-134046363D01*
X116870812Y-133976920D01*
X116895929Y-133910515D01*
X116923281Y-133883909D01*
X116940088Y-133871921D01*
X117013255Y-133848500D01*
X117368633Y-133848500D01*
X117379694Y-133849433D01*
X117379715Y-133849153D01*
X117385688Y-133849592D01*
X117391607Y-133850598D01*
X117486371Y-133848530D01*
X117489119Y-133848500D01*
X117529041Y-133848500D01*
X117536705Y-133847769D01*
X117545901Y-133847231D01*
X117581565Y-133846453D01*
X117601852Y-133846010D01*
X117601853Y-133846010D01*
X117607848Y-133845879D01*
X117641495Y-133838635D01*
X117656044Y-133836383D01*
X117678481Y-133834242D01*
X117690315Y-133833113D01*
X117706943Y-133828235D01*
X117749768Y-133815671D01*
X117758719Y-133813397D01*
X117758877Y-133813363D01*
X117819295Y-133800356D01*
X117850966Y-133786880D01*
X117864827Y-133781917D01*
X117897860Y-133772226D01*
X117952941Y-133743858D01*
X117961286Y-133739939D01*
X118018320Y-133715671D01*
X118046879Y-133696444D01*
X118059554Y-133688948D01*
X118067159Y-133685031D01*
X118090148Y-133673191D01*
X118138874Y-133634917D01*
X118146324Y-133629494D01*
X118193981Y-133597409D01*
X118193983Y-133597407D01*
X118197740Y-133594878D01*
X118201956Y-133591055D01*
X118223149Y-133569862D01*
X118234411Y-133559871D01*
X118255522Y-133543288D01*
X118260239Y-133539583D01*
X118302020Y-133491435D01*
X118308089Y-133484922D01*
X120741291Y-131051720D01*
X120749776Y-131044556D01*
X120749592Y-131044343D01*
X120754128Y-131040428D01*
X120759021Y-131036957D01*
X120824605Y-130968447D01*
X120826528Y-130966483D01*
X120854718Y-130938293D01*
X120859607Y-130932373D01*
X120865739Y-130925479D01*
X120904437Y-130885054D01*
X120904440Y-130885050D01*
X120908590Y-130880715D01*
X120927260Y-130851800D01*
X120935958Y-130839916D01*
X120954059Y-130817997D01*
X120957876Y-130813375D01*
X120987594Y-130758981D01*
X120992307Y-130751061D01*
X121022659Y-130704054D01*
X121022661Y-130704050D01*
X121025916Y-130699009D01*
X121038784Y-130667080D01*
X121045072Y-130653778D01*
X121058703Y-130628829D01*
X121061579Y-130623565D01*
X121080468Y-130564555D01*
X121083604Y-130555868D01*
X121104526Y-130503955D01*
X121104527Y-130503952D01*
X121106766Y-130498396D01*
X121113363Y-130464613D01*
X121117026Y-130450347D01*
X121125688Y-130423288D01*
X121125690Y-130423278D01*
X121127518Y-130417568D01*
X121134908Y-130356047D01*
X121136341Y-130346948D01*
X121148222Y-130286113D01*
X121148500Y-130280429D01*
X121148500Y-130250456D01*
X121149399Y-130235428D01*
X121152602Y-130208769D01*
X121152602Y-130208763D01*
X121153316Y-130202821D01*
X121151585Y-130178365D01*
X121148815Y-130139250D01*
X121148500Y-130130351D01*
X121148500Y-119486367D01*
X121149433Y-119475306D01*
X121149153Y-119475285D01*
X121149592Y-119469312D01*
X121150598Y-119463393D01*
X121148530Y-119368629D01*
X121148500Y-119365881D01*
X121148500Y-119325959D01*
X121147769Y-119318295D01*
X121147231Y-119309094D01*
X121146010Y-119253148D01*
X121146010Y-119253147D01*
X121145879Y-119247152D01*
X121138635Y-119213505D01*
X121136383Y-119198956D01*
X121133683Y-119170661D01*
X121133113Y-119164685D01*
X121115671Y-119105232D01*
X121113397Y-119096281D01*
X121101619Y-119041571D01*
X121101619Y-119041570D01*
X121100356Y-119035705D01*
X121086877Y-119004029D01*
X121081916Y-118990172D01*
X121073913Y-118962891D01*
X121072226Y-118957140D01*
X121043848Y-118902040D01*
X121039945Y-118893728D01*
X121015670Y-118836680D01*
X120996447Y-118808126D01*
X120988952Y-118795453D01*
X120975941Y-118770191D01*
X120975940Y-118770190D01*
X120973191Y-118764852D01*
X120934915Y-118716124D01*
X120929483Y-118708661D01*
X120897416Y-118661030D01*
X120894878Y-118657260D01*
X120891055Y-118653044D01*
X120869862Y-118631851D01*
X120859871Y-118620589D01*
X120843288Y-118599478D01*
X120839583Y-118594761D01*
X120811517Y-118570406D01*
X120791436Y-118552981D01*
X120784922Y-118546911D01*
X119621720Y-117383709D01*
X119614556Y-117375224D01*
X119614343Y-117375408D01*
X119610428Y-117370872D01*
X119606957Y-117365979D01*
X119538447Y-117300395D01*
X119536483Y-117298472D01*
X119508293Y-117270282D01*
X119502373Y-117265393D01*
X119495479Y-117259261D01*
X119455054Y-117220563D01*
X119455050Y-117220560D01*
X119450715Y-117216410D01*
X119445676Y-117213157D01*
X119445673Y-117213154D01*
X119421800Y-117197740D01*
X119409916Y-117189042D01*
X119387997Y-117170941D01*
X119387998Y-117170941D01*
X119383375Y-117167124D01*
X119328981Y-117137406D01*
X119321061Y-117132693D01*
X119274054Y-117102341D01*
X119274050Y-117102339D01*
X119269009Y-117099084D01*
X119237080Y-117086216D01*
X119223778Y-117079928D01*
X119198829Y-117066297D01*
X119193565Y-117063421D01*
X119187860Y-117061595D01*
X119187858Y-117061594D01*
X119155033Y-117051087D01*
X119134545Y-117044529D01*
X119125865Y-117041395D01*
X119073959Y-117020476D01*
X119068396Y-117018234D01*
X119062510Y-117017084D01*
X119062508Y-117017084D01*
X119034615Y-117011637D01*
X119020351Y-117007975D01*
X118993273Y-116999307D01*
X118993271Y-116999307D01*
X118987568Y-116997481D01*
X118981619Y-116996766D01*
X118981613Y-116996765D01*
X118926045Y-116990089D01*
X118916925Y-116988653D01*
X118867440Y-116978990D01*
X118856113Y-116976778D01*
X118850429Y-116976500D01*
X118820455Y-116976500D01*
X118805427Y-116975601D01*
X118778767Y-116972398D01*
X118778763Y-116972398D01*
X118772820Y-116971684D01*
X118766845Y-116972107D01*
X118766842Y-116972107D01*
X118746017Y-116973582D01*
X118714677Y-116975801D01*
X118645314Y-116960661D01*
X118604952Y-116925681D01*
X118597058Y-116915148D01*
X118572210Y-116848641D01*
X118587263Y-116779259D01*
X118597058Y-116764018D01*
X118664786Y-116673649D01*
X118673324Y-116658054D01*
X118718478Y-116537606D01*
X118722105Y-116522351D01*
X118727631Y-116471486D01*
X118728000Y-116464672D01*
X118728000Y-115842115D01*
X118723525Y-115826876D01*
X118722135Y-115825671D01*
X118714452Y-115824000D01*
X114230116Y-115824000D01*
X114214877Y-115828475D01*
X114213672Y-115829865D01*
X114212001Y-115837548D01*
X114212001Y-116464669D01*
X114212371Y-116471490D01*
X114217895Y-116522352D01*
X114221521Y-116537604D01*
X114266676Y-116658054D01*
X114275214Y-116673649D01*
X114342942Y-116764018D01*
X114367790Y-116830525D01*
X114352737Y-116899907D01*
X114342942Y-116915148D01*
X114319578Y-116946323D01*
X114269385Y-117013295D01*
X114218255Y-117149684D01*
X114211500Y-117211866D01*
X114211500Y-118030219D01*
X114210787Y-118043607D01*
X114207251Y-118076695D01*
X114207548Y-118081848D01*
X114207548Y-118081851D01*
X114211291Y-118146763D01*
X114211500Y-118154016D01*
X114211500Y-119008134D01*
X114218255Y-119070316D01*
X114269385Y-119206705D01*
X114342627Y-119304431D01*
X114342630Y-119304435D01*
X114367478Y-119370941D01*
X114352425Y-119440324D01*
X114342632Y-119455562D01*
X114269385Y-119553295D01*
X114218255Y-119689684D01*
X114211500Y-119751866D01*
X114211500Y-120570219D01*
X114210787Y-120583607D01*
X114207251Y-120616695D01*
X114207548Y-120621848D01*
X114207548Y-120621851D01*
X114211291Y-120686763D01*
X114211500Y-120694016D01*
X114211500Y-121548134D01*
X114218255Y-121610316D01*
X114269385Y-121746705D01*
X114356739Y-121863261D01*
X114473295Y-121950615D01*
X114609684Y-122001745D01*
X114671866Y-122008500D01*
X114963000Y-122008500D01*
X115031121Y-122028502D01*
X115077614Y-122082158D01*
X115089000Y-122134500D01*
X115089000Y-129004495D01*
X115068998Y-129072616D01*
X115015342Y-129119109D01*
X114945068Y-129129213D01*
X114880488Y-129099719D01*
X114873982Y-129093668D01*
X114760983Y-128980866D01*
X114755803Y-128975695D01*
X114658149Y-128915500D01*
X114611468Y-128886725D01*
X114611466Y-128886724D01*
X114605238Y-128882885D01*
X114444754Y-128829655D01*
X114443889Y-128829368D01*
X114443887Y-128829368D01*
X114437361Y-128827203D01*
X114430525Y-128826503D01*
X114430522Y-128826502D01*
X114387469Y-128822091D01*
X114332900Y-128816500D01*
X113032100Y-128816500D01*
X113028854Y-128816837D01*
X113028850Y-128816837D01*
X112933192Y-128826762D01*
X112933188Y-128826763D01*
X112926334Y-128827474D01*
X112919798Y-128829655D01*
X112919796Y-128829655D01*
X112787694Y-128873728D01*
X112758554Y-128883450D01*
X112608152Y-128976522D01*
X112602979Y-128981704D01*
X112602974Y-128981708D01*
X112580205Y-129004517D01*
X112517923Y-129038597D01*
X112491032Y-129041500D01*
X97779500Y-129041500D01*
X97711379Y-129021498D01*
X97664886Y-128967842D01*
X97653500Y-128915500D01*
X97653500Y-122441701D01*
X97673502Y-122373580D01*
X97690405Y-122352606D01*
X97997606Y-122045405D01*
X98059918Y-122011379D01*
X98086701Y-122008500D01*
X98688134Y-122008500D01*
X98750316Y-122001745D01*
X98886705Y-121950615D01*
X99003261Y-121863261D01*
X99090615Y-121746705D01*
X99141745Y-121610316D01*
X99148500Y-121548134D01*
X99148500Y-120747856D01*
X99149578Y-120731409D01*
X99151092Y-120719908D01*
X99151529Y-120716590D01*
X99153156Y-120650000D01*
X99148924Y-120598524D01*
X99148500Y-120588200D01*
X99148500Y-120386695D01*
X102777251Y-120386695D01*
X102777548Y-120391848D01*
X102777548Y-120391851D01*
X102781291Y-120456763D01*
X102781500Y-120464016D01*
X102781500Y-123118134D01*
X102788255Y-123180316D01*
X102839385Y-123316705D01*
X102926739Y-123433261D01*
X102956067Y-123455241D01*
X102998580Y-123512100D01*
X103006500Y-123556066D01*
X103006500Y-125460734D01*
X102986498Y-125528855D01*
X102956068Y-125561558D01*
X102926739Y-125583539D01*
X102839385Y-125700095D01*
X102788255Y-125836484D01*
X102781500Y-125898666D01*
X102781500Y-127694934D01*
X102788255Y-127757116D01*
X102839385Y-127893505D01*
X102926739Y-128010061D01*
X103043295Y-128097415D01*
X103179684Y-128148545D01*
X103241866Y-128155300D01*
X105038134Y-128155300D01*
X105100316Y-128148545D01*
X105236705Y-128097415D01*
X105353261Y-128010061D01*
X105440615Y-127893505D01*
X105484798Y-127775648D01*
X105527440Y-127718884D01*
X105594001Y-127694184D01*
X105663350Y-127709392D01*
X105698017Y-127737380D01*
X105723218Y-127766473D01*
X105730580Y-127773683D01*
X105894434Y-127909716D01*
X105902881Y-127915631D01*
X106086756Y-128023079D01*
X106096042Y-128027529D01*
X106295001Y-128103503D01*
X106304899Y-128106379D01*
X106408250Y-128127406D01*
X106422299Y-128126210D01*
X106426000Y-128115865D01*
X106426000Y-128115317D01*
X106934000Y-128115317D01*
X106938064Y-128129159D01*
X106951478Y-128131193D01*
X106958184Y-128130334D01*
X106968262Y-128128192D01*
X107172255Y-128066991D01*
X107181842Y-128063233D01*
X107373095Y-127969539D01*
X107381945Y-127964264D01*
X107555328Y-127840592D01*
X107563200Y-127833939D01*
X107714052Y-127683612D01*
X107720730Y-127675765D01*
X107848022Y-127498619D01*
X107849279Y-127499522D01*
X107896373Y-127456162D01*
X107966311Y-127443945D01*
X108031751Y-127471478D01*
X108059579Y-127503311D01*
X108119987Y-127601888D01*
X108266250Y-127770738D01*
X108438126Y-127913432D01*
X108631000Y-128026138D01*
X108839692Y-128105830D01*
X108844760Y-128106861D01*
X108844763Y-128106862D01*
X108939862Y-128126210D01*
X109058597Y-128150367D01*
X109063772Y-128150557D01*
X109063774Y-128150557D01*
X109276673Y-128158364D01*
X109276677Y-128158364D01*
X109281837Y-128158553D01*
X109286957Y-128157897D01*
X109286959Y-128157897D01*
X109498288Y-128130825D01*
X109498289Y-128130825D01*
X109503416Y-128130168D01*
X109508366Y-128128683D01*
X109712429Y-128067461D01*
X109712434Y-128067459D01*
X109717384Y-128065974D01*
X109917994Y-127967696D01*
X110099860Y-127837973D01*
X110258096Y-127680289D01*
X110388453Y-127498877D01*
X110401995Y-127471478D01*
X110485136Y-127303253D01*
X110485137Y-127303251D01*
X110487430Y-127298611D01*
X110552370Y-127084869D01*
X110581529Y-126863390D01*
X110583156Y-126796800D01*
X110564852Y-126574161D01*
X110510431Y-126357502D01*
X110421354Y-126152640D01*
X110373708Y-126078990D01*
X110353500Y-126010551D01*
X110353500Y-123556066D01*
X110373502Y-123487945D01*
X110403933Y-123455241D01*
X110433261Y-123433261D01*
X110520615Y-123316705D01*
X110571745Y-123180316D01*
X110578500Y-123118134D01*
X110578500Y-120517856D01*
X110579578Y-120501409D01*
X110581092Y-120489908D01*
X110581529Y-120486590D01*
X110583156Y-120420000D01*
X110578924Y-120368524D01*
X110578500Y-120358200D01*
X110578500Y-119521866D01*
X110571745Y-119459684D01*
X110520615Y-119323295D01*
X110433261Y-119206739D01*
X110316705Y-119119385D01*
X110180316Y-119068255D01*
X110118134Y-119061500D01*
X109234985Y-119061500D01*
X109233446Y-119061491D01*
X109130081Y-119060228D01*
X109130079Y-119060228D01*
X109124911Y-119060165D01*
X109119797Y-119060948D01*
X109116289Y-119061193D01*
X109107496Y-119061500D01*
X108321866Y-119061500D01*
X108259684Y-119068255D01*
X108123295Y-119119385D01*
X108070538Y-119158924D01*
X108025148Y-119192942D01*
X107958642Y-119217790D01*
X107889259Y-119202737D01*
X107874018Y-119192942D01*
X107783649Y-119125214D01*
X107768054Y-119116676D01*
X107647606Y-119071522D01*
X107632351Y-119067895D01*
X107581486Y-119062369D01*
X107574672Y-119062000D01*
X106952115Y-119062000D01*
X106936876Y-119066475D01*
X106935671Y-119067865D01*
X106934000Y-119075548D01*
X106934000Y-123559884D01*
X106938475Y-123575123D01*
X106939865Y-123576328D01*
X106947548Y-123577999D01*
X107574669Y-123577999D01*
X107581490Y-123577629D01*
X107632352Y-123572105D01*
X107647604Y-123568479D01*
X107768054Y-123523324D01*
X107783649Y-123514786D01*
X107874018Y-123447058D01*
X107940525Y-123422210D01*
X108009907Y-123437263D01*
X108025149Y-123447059D01*
X108036066Y-123455241D01*
X108078581Y-123512100D01*
X108086500Y-123556066D01*
X108086500Y-126008725D01*
X108064590Y-126079726D01*
X108052896Y-126096868D01*
X107997987Y-126141869D01*
X107927462Y-126150040D01*
X107863715Y-126118786D01*
X107843018Y-126094302D01*
X107762426Y-125969726D01*
X107756136Y-125961557D01*
X107612806Y-125804040D01*
X107605273Y-125797015D01*
X107438139Y-125665022D01*
X107429552Y-125659317D01*
X107243117Y-125556399D01*
X107233705Y-125552169D01*
X107032959Y-125481080D01*
X107022988Y-125478446D01*
X106951837Y-125465772D01*
X106938540Y-125467232D01*
X106934000Y-125481789D01*
X106934000Y-128115317D01*
X106426000Y-128115317D01*
X106426000Y-125479902D01*
X106422082Y-125466558D01*
X106407806Y-125464571D01*
X106369324Y-125470460D01*
X106359288Y-125472851D01*
X106156868Y-125539012D01*
X106147359Y-125543009D01*
X105958463Y-125641342D01*
X105949738Y-125646836D01*
X105779433Y-125774705D01*
X105771726Y-125781548D01*
X105694478Y-125862384D01*
X105632954Y-125897814D01*
X105562042Y-125894357D01*
X105504255Y-125853111D01*
X105485402Y-125819563D01*
X105443767Y-125708503D01*
X105440615Y-125700095D01*
X105353261Y-125583539D01*
X105323933Y-125561559D01*
X105281420Y-125504700D01*
X105273500Y-125460734D01*
X105273500Y-123556066D01*
X105293502Y-123487945D01*
X105323934Y-123455241D01*
X105334851Y-123447059D01*
X105401357Y-123422210D01*
X105470740Y-123437262D01*
X105485982Y-123447058D01*
X105576351Y-123514786D01*
X105591946Y-123523324D01*
X105712394Y-123568478D01*
X105727649Y-123572105D01*
X105778514Y-123577631D01*
X105785328Y-123578000D01*
X106407885Y-123578000D01*
X106423124Y-123573525D01*
X106424329Y-123572135D01*
X106426000Y-123564452D01*
X106426000Y-119080116D01*
X106421525Y-119064877D01*
X106420135Y-119063672D01*
X106412452Y-119062001D01*
X105785331Y-119062001D01*
X105778510Y-119062371D01*
X105727648Y-119067895D01*
X105712396Y-119071521D01*
X105591946Y-119116676D01*
X105576351Y-119125214D01*
X105485982Y-119192942D01*
X105419475Y-119217790D01*
X105350093Y-119202737D01*
X105334852Y-119192942D01*
X105289462Y-119158924D01*
X105236705Y-119119385D01*
X105100316Y-119068255D01*
X105038134Y-119061500D01*
X104154985Y-119061500D01*
X104153446Y-119061491D01*
X104050081Y-119060228D01*
X104050079Y-119060228D01*
X104044911Y-119060165D01*
X104039797Y-119060948D01*
X104036289Y-119061193D01*
X104027496Y-119061500D01*
X103241866Y-119061500D01*
X103179684Y-119068255D01*
X103043295Y-119119385D01*
X102926739Y-119206739D01*
X102839385Y-119323295D01*
X102788255Y-119459684D01*
X102781500Y-119521866D01*
X102781500Y-120340219D01*
X102780787Y-120353607D01*
X102777251Y-120386695D01*
X99148500Y-120386695D01*
X99148500Y-119751866D01*
X99141745Y-119689684D01*
X99090615Y-119553295D01*
X99017370Y-119455564D01*
X98992522Y-119389059D01*
X99007575Y-119319676D01*
X99017370Y-119304435D01*
X99017373Y-119304431D01*
X99090615Y-119206705D01*
X99141745Y-119070316D01*
X99148500Y-119008134D01*
X99148500Y-118207856D01*
X99149578Y-118191409D01*
X99151092Y-118179908D01*
X99151529Y-118176590D01*
X99153156Y-118110000D01*
X99148924Y-118058524D01*
X99148500Y-118048200D01*
X99148500Y-117211866D01*
X99141745Y-117149684D01*
X99090615Y-117013295D01*
X99040422Y-116946323D01*
X99017058Y-116915148D01*
X98992210Y-116848642D01*
X99007263Y-116779259D01*
X99017058Y-116764018D01*
X99084786Y-116673649D01*
X99093324Y-116658054D01*
X99138478Y-116537606D01*
X99142105Y-116522351D01*
X99147631Y-116471486D01*
X99148000Y-116464672D01*
X99148000Y-115842115D01*
X99143525Y-115826876D01*
X99142135Y-115825671D01*
X99134452Y-115824000D01*
X94650116Y-115824000D01*
X94634877Y-115828475D01*
X94633672Y-115829865D01*
X94632001Y-115837548D01*
X94632001Y-116464669D01*
X94632371Y-116471490D01*
X94637895Y-116522352D01*
X94641521Y-116537604D01*
X94686676Y-116658054D01*
X94695214Y-116673649D01*
X94762942Y-116764018D01*
X94787790Y-116830525D01*
X94772737Y-116899907D01*
X94762941Y-116915149D01*
X94754759Y-116926066D01*
X94697900Y-116968581D01*
X94653934Y-116976500D01*
X94086367Y-116976500D01*
X94075306Y-116975567D01*
X94075285Y-116975847D01*
X94069312Y-116975408D01*
X94063393Y-116974402D01*
X93968630Y-116976470D01*
X93965881Y-116976500D01*
X93925959Y-116976500D01*
X93918295Y-116977231D01*
X93909099Y-116977769D01*
X93867295Y-116978681D01*
X93853150Y-116978990D01*
X93853149Y-116978990D01*
X93847152Y-116979121D01*
X93841292Y-116980383D01*
X93841289Y-116980383D01*
X93813500Y-116986366D01*
X93798948Y-116988618D01*
X93793927Y-116989097D01*
X93764685Y-116991887D01*
X93705231Y-117009329D01*
X93696286Y-117011600D01*
X93641577Y-117023379D01*
X93641571Y-117023381D01*
X93635704Y-117024644D01*
X93604020Y-117038125D01*
X93590185Y-117043079D01*
X93557140Y-117052774D01*
X93551806Y-117055521D01*
X93551804Y-117055522D01*
X93502055Y-117081145D01*
X93493695Y-117085070D01*
X93466024Y-117096844D01*
X93436680Y-117109330D01*
X93431703Y-117112681D01*
X93408127Y-117128553D01*
X93395452Y-117136049D01*
X93370183Y-117149063D01*
X93370180Y-117149065D01*
X93364852Y-117151809D01*
X93360137Y-117155513D01*
X93316133Y-117190078D01*
X93308667Y-117195512D01*
X93261025Y-117227587D01*
X93261019Y-117227591D01*
X93257259Y-117230123D01*
X93253044Y-117233945D01*
X93231851Y-117255138D01*
X93220590Y-117265128D01*
X93194761Y-117285417D01*
X93190830Y-117289947D01*
X93190829Y-117289948D01*
X93152981Y-117333564D01*
X93146911Y-117340078D01*
X92301209Y-118185780D01*
X92292724Y-118192944D01*
X92292908Y-118193157D01*
X92288372Y-118197072D01*
X92283479Y-118200543D01*
X92279333Y-118204874D01*
X92217895Y-118269053D01*
X92215972Y-118271017D01*
X92187782Y-118299207D01*
X92185873Y-118301519D01*
X92185870Y-118301522D01*
X92182896Y-118305124D01*
X92176761Y-118312021D01*
X92138063Y-118352446D01*
X92138060Y-118352450D01*
X92133910Y-118356785D01*
X92130657Y-118361824D01*
X92130654Y-118361827D01*
X92115240Y-118385700D01*
X92106542Y-118397583D01*
X92084624Y-118424125D01*
X92054906Y-118478519D01*
X92050193Y-118486439D01*
X92019841Y-118533446D01*
X92019839Y-118533450D01*
X92016584Y-118538491D01*
X92003716Y-118570420D01*
X91997428Y-118583722D01*
X91980921Y-118613935D01*
X91979095Y-118619640D01*
X91979094Y-118619642D01*
X91962031Y-118672949D01*
X91958895Y-118681635D01*
X91944994Y-118716127D01*
X91935734Y-118739104D01*
X91934584Y-118744990D01*
X91934584Y-118744992D01*
X91929137Y-118772885D01*
X91925475Y-118787149D01*
X91920719Y-118802008D01*
X91914981Y-118819932D01*
X91914266Y-118825881D01*
X91914265Y-118825887D01*
X91907589Y-118881455D01*
X91906153Y-118890575D01*
X91904714Y-118897945D01*
X91894278Y-118951387D01*
X91894000Y-118957071D01*
X91894000Y-118987045D01*
X91893101Y-119002073D01*
X91889184Y-119034680D01*
X91889607Y-119040656D01*
X91889607Y-119040659D01*
X91893685Y-119098251D01*
X91894000Y-119107150D01*
X91894000Y-131021133D01*
X91893067Y-131032194D01*
X91893347Y-131032215D01*
X91892908Y-131038188D01*
X91891902Y-131044107D01*
X91892033Y-131050108D01*
X91893970Y-131138870D01*
X91894000Y-131141619D01*
X91894000Y-131181541D01*
X91894731Y-131189205D01*
X91895269Y-131198401D01*
X91896621Y-131260348D01*
X91897883Y-131266208D01*
X91903865Y-131293994D01*
X91906117Y-131308544D01*
X91908021Y-131328502D01*
X91909387Y-131342815D01*
X91911077Y-131348575D01*
X91911077Y-131348576D01*
X91926829Y-131402268D01*
X91929103Y-131411217D01*
X91942144Y-131471795D01*
X91944492Y-131477314D01*
X91944493Y-131477316D01*
X91955620Y-131503466D01*
X91960583Y-131517327D01*
X91970274Y-131550360D01*
X91985333Y-131579598D01*
X91998639Y-131605434D01*
X92002561Y-131613786D01*
X92026829Y-131670820D01*
X92041445Y-131692530D01*
X92046056Y-131699379D01*
X92053552Y-131712054D01*
X92069309Y-131742648D01*
X92107583Y-131791374D01*
X92113006Y-131798824D01*
X92147622Y-131850240D01*
X92151445Y-131854456D01*
X92172638Y-131875649D01*
X92182628Y-131886910D01*
X92202917Y-131912739D01*
X92207447Y-131916670D01*
X92207448Y-131916671D01*
X92251064Y-131954519D01*
X92257578Y-131960589D01*
X93738280Y-133441291D01*
X93745444Y-133449776D01*
X93745657Y-133449592D01*
X93749572Y-133454128D01*
X93753043Y-133459021D01*
X93803671Y-133507487D01*
X93821553Y-133524605D01*
X93823517Y-133526528D01*
X93851707Y-133554718D01*
X93854019Y-133556627D01*
X93854022Y-133556630D01*
X93857624Y-133559604D01*
X93864521Y-133565739D01*
X93904946Y-133604437D01*
X93904950Y-133604440D01*
X93909285Y-133608590D01*
X93914324Y-133611843D01*
X93914327Y-133611846D01*
X93938200Y-133627260D01*
X93950083Y-133635958D01*
X93976625Y-133657876D01*
X94031019Y-133687594D01*
X94038939Y-133692307D01*
X94085946Y-133722659D01*
X94085950Y-133722661D01*
X94090991Y-133725916D01*
X94122920Y-133738784D01*
X94136223Y-133745072D01*
X94166435Y-133761579D01*
X94172140Y-133763405D01*
X94172142Y-133763406D01*
X94191124Y-133769482D01*
X94225455Y-133780471D01*
X94234135Y-133783605D01*
X94275699Y-133800356D01*
X94291604Y-133806766D01*
X94297490Y-133807916D01*
X94297492Y-133807916D01*
X94325385Y-133813363D01*
X94339649Y-133817025D01*
X94366727Y-133825693D01*
X94366729Y-133825693D01*
X94372432Y-133827519D01*
X94378381Y-133828234D01*
X94378387Y-133828235D01*
X94433955Y-133834911D01*
X94443075Y-133836347D01*
X94485427Y-133844617D01*
X94503887Y-133848222D01*
X94509571Y-133848500D01*
X94539545Y-133848500D01*
X94554573Y-133849399D01*
X94581233Y-133852602D01*
X94581237Y-133852602D01*
X94587180Y-133853316D01*
X94593156Y-133852893D01*
X94593159Y-133852893D01*
X94650751Y-133848815D01*
X94659650Y-133848500D01*
X112895377Y-133848500D01*
X112958947Y-133865712D01*
X112969573Y-133871921D01*
X112973945Y-133874476D01*
X113022669Y-133926114D01*
X113035740Y-133995897D01*
X113009009Y-134061669D01*
X112968555Y-134095027D01*
X112956107Y-134101507D01*
X112954890Y-134102421D01*
X112888786Y-134121500D01*
X92596701Y-134121500D01*
X92528580Y-134101498D01*
X92507606Y-134084595D01*
X91340405Y-132917394D01*
X91306379Y-132855082D01*
X91303500Y-132828299D01*
X91303500Y-116091701D01*
X91323502Y-116023580D01*
X91340405Y-116002606D01*
X93142606Y-114200405D01*
X93204918Y-114166379D01*
X93231701Y-114163500D01*
X94653934Y-114163500D01*
X94722055Y-114183502D01*
X94754759Y-114213934D01*
X94762941Y-114224851D01*
X94787790Y-114291357D01*
X94772738Y-114360740D01*
X94762942Y-114375982D01*
X94695214Y-114466351D01*
X94686676Y-114481946D01*
X94641522Y-114602394D01*
X94637895Y-114617649D01*
X94632369Y-114668514D01*
X94632000Y-114675328D01*
X94632000Y-115297885D01*
X94636475Y-115313124D01*
X94637865Y-115314329D01*
X94645548Y-115316000D01*
X99129884Y-115316000D01*
X99145123Y-115311525D01*
X99146328Y-115310135D01*
X99147999Y-115302452D01*
X99147999Y-114675331D01*
X99147629Y-114668510D01*
X99142105Y-114617648D01*
X99138479Y-114602396D01*
X99093324Y-114481946D01*
X99084786Y-114466351D01*
X99017058Y-114375982D01*
X98992210Y-114309475D01*
X99007263Y-114240093D01*
X99017058Y-114224852D01*
X99058485Y-114169576D01*
X99090615Y-114126705D01*
X99141745Y-113990316D01*
X99148500Y-113928134D01*
X99148500Y-113127856D01*
X99149578Y-113111409D01*
X99151092Y-113099908D01*
X99151529Y-113096590D01*
X99153156Y-113030000D01*
X99148924Y-112978524D01*
X99148500Y-112968200D01*
X99148500Y-112131866D01*
X99141745Y-112069684D01*
X99090615Y-111933295D01*
X99017370Y-111835564D01*
X98992522Y-111769059D01*
X99007575Y-111699676D01*
X99017370Y-111684435D01*
X99017373Y-111684431D01*
X99090615Y-111586705D01*
X99141745Y-111450316D01*
X99148500Y-111388134D01*
X99148500Y-110587856D01*
X99149578Y-110571409D01*
X99151092Y-110559908D01*
X99151529Y-110556590D01*
X99153156Y-110490000D01*
X99148924Y-110438524D01*
X99148500Y-110428200D01*
X99148500Y-109591866D01*
X99141745Y-109529684D01*
X99090615Y-109393295D01*
X99003261Y-109276739D01*
X98886705Y-109189385D01*
X98874132Y-109184672D01*
X98768203Y-109144960D01*
X98711439Y-109102318D01*
X98686739Y-109035756D01*
X98701947Y-108966408D01*
X98723493Y-108937727D01*
X98824435Y-108837137D01*
X98828096Y-108833489D01*
X98887594Y-108750689D01*
X98955435Y-108656277D01*
X98958453Y-108652077D01*
X99057430Y-108451811D01*
X99122370Y-108238069D01*
X99151529Y-108016590D01*
X99153156Y-107950000D01*
X99134852Y-107727361D01*
X99080431Y-107510702D01*
X99071969Y-107491240D01*
X99063149Y-107420796D01*
X99093816Y-107356764D01*
X99154233Y-107319476D01*
X99187519Y-107315000D01*
X114170975Y-107315000D01*
X114239096Y-107335002D01*
G37*
%TD.AperFunction*%
%TD*%
M02*
