%TF.GenerationSoftware,KiCad,Pcbnew,(6.0.8)*%
%TF.CreationDate,2022-10-05T13:18:44+02:00*%
%TF.ProjectId,Pico_Interface,5069636f-5f49-46e7-9465-72666163652e,rev?*%
%TF.SameCoordinates,Original*%
%TF.FileFunction,Soldermask,Top*%
%TF.FilePolarity,Negative*%
%FSLAX46Y46*%
G04 Gerber Fmt 4.6, Leading zero omitted, Abs format (unit mm)*
G04 Created by KiCad (PCBNEW (6.0.8)) date 2022-10-05 13:18:44*
%MOMM*%
%LPD*%
G01*
G04 APERTURE LIST*
G04 Aperture macros list*
%AMRoundRect*
0 Rectangle with rounded corners*
0 $1 Rounding radius*
0 $2 $3 $4 $5 $6 $7 $8 $9 X,Y pos of 4 corners*
0 Add a 4 corners polygon primitive as box body*
4,1,4,$2,$3,$4,$5,$6,$7,$8,$9,$2,$3,0*
0 Add four circle primitives for the rounded corners*
1,1,$1+$1,$2,$3*
1,1,$1+$1,$4,$5*
1,1,$1+$1,$6,$7*
1,1,$1+$1,$8,$9*
0 Add four rect primitives between the rounded corners*
20,1,$1+$1,$2,$3,$4,$5,0*
20,1,$1+$1,$4,$5,$6,$7,0*
20,1,$1+$1,$6,$7,$8,$9,0*
20,1,$1+$1,$8,$9,$2,$3,0*%
G04 Aperture macros list end*
%TA.AperFunction,Profile*%
%ADD10C,0.100000*%
%TD*%
%ADD11O,1.700000X1.700000*%
%ADD12R,3.500000X1.700000*%
%ADD13R,1.700000X1.700000*%
%ADD14R,1.700000X3.500000*%
%ADD15C,1.700000*%
%ADD16RoundRect,0.250000X-0.600000X-0.600000X0.600000X-0.600000X0.600000X0.600000X-0.600000X0.600000X0*%
G04 APERTURE END LIST*
D10*
X85090000Y-106680000D02*
X127635000Y-106680000D01*
X127635000Y-106680000D02*
X127635000Y-147320000D01*
X127635000Y-147320000D02*
X85090000Y-147320000D01*
X85090000Y-147320000D02*
X85090000Y-106680000D01*
D11*
%TO.C,U1*%
X97790000Y-107950000D03*
D12*
X96890000Y-110490000D03*
D11*
X97790000Y-110490000D03*
D12*
X96890000Y-113030000D03*
D11*
X97790000Y-113030000D03*
D12*
X96890000Y-115570000D03*
D13*
X97790000Y-115570000D03*
D11*
X97790000Y-118110000D03*
D12*
X96890000Y-118110000D03*
X96890000Y-120650000D03*
D11*
X97790000Y-120650000D03*
D12*
X116470000Y-120650000D03*
D11*
X115570000Y-120650000D03*
D12*
X116470000Y-118110000D03*
D11*
X115570000Y-118110000D03*
D12*
X116470000Y-115570000D03*
D13*
X115570000Y-115570000D03*
D11*
X115570000Y-113030000D03*
D12*
X116470000Y-113030000D03*
X116470000Y-110490000D03*
D11*
X115570000Y-110490000D03*
X115570000Y-107950000D03*
D14*
X104140000Y-121320000D03*
D11*
X104140000Y-120420000D03*
D13*
X106680000Y-120420000D03*
D14*
X106680000Y-121320000D03*
D11*
X109220000Y-120420000D03*
D14*
X109220000Y-121320000D03*
%TD*%
D13*
%TO.C,J2*%
X104140000Y-126796800D03*
D11*
X106680000Y-126796800D03*
X109220000Y-126796800D03*
%TD*%
D15*
%TO.C,J1*%
X116222500Y-140335000D03*
X113682500Y-140335000D03*
X116222500Y-137795000D03*
X113682500Y-137795000D03*
X116222500Y-135255000D03*
X113682500Y-135255000D03*
X116222500Y-132715000D03*
X113682500Y-132715000D03*
X116222500Y-130175000D03*
D16*
X113682500Y-130175000D03*
%TD*%
M02*
