%TF.GenerationSoftware,KiCad,Pcbnew,(6.0.8)*%
%TF.CreationDate,2022-10-05T13:18:44+02:00*%
%TF.ProjectId,Pico_Interface,5069636f-5f49-46e7-9465-72666163652e,rev?*%
%TF.SameCoordinates,Original*%
%TF.FileFunction,Copper,L2,Bot*%
%TF.FilePolarity,Positive*%
%FSLAX46Y46*%
G04 Gerber Fmt 4.6, Leading zero omitted, Abs format (unit mm)*
G04 Created by KiCad (PCBNEW (6.0.8)) date 2022-10-05 13:18:44*
%MOMM*%
%LPD*%
G01*
G04 APERTURE LIST*
G04 Aperture macros list*
%AMRoundRect*
0 Rectangle with rounded corners*
0 $1 Rounding radius*
0 $2 $3 $4 $5 $6 $7 $8 $9 X,Y pos of 4 corners*
0 Add a 4 corners polygon primitive as box body*
4,1,4,$2,$3,$4,$5,$6,$7,$8,$9,$2,$3,0*
0 Add four circle primitives for the rounded corners*
1,1,$1+$1,$2,$3*
1,1,$1+$1,$4,$5*
1,1,$1+$1,$6,$7*
1,1,$1+$1,$8,$9*
0 Add four rect primitives between the rounded corners*
20,1,$1+$1,$2,$3,$4,$5,0*
20,1,$1+$1,$4,$5,$6,$7,0*
20,1,$1+$1,$6,$7,$8,$9,0*
20,1,$1+$1,$8,$9,$2,$3,0*%
G04 Aperture macros list end*
%TA.AperFunction,Profile*%
%ADD10C,0.100000*%
%TD*%
%TA.AperFunction,ComponentPad*%
%ADD11O,1.700000X1.700000*%
%TD*%
%TA.AperFunction,ComponentPad*%
%ADD12R,1.700000X1.700000*%
%TD*%
%TA.AperFunction,ComponentPad*%
%ADD13C,1.700000*%
%TD*%
%TA.AperFunction,ComponentPad*%
%ADD14RoundRect,0.250000X-0.600000X-0.600000X0.600000X-0.600000X0.600000X0.600000X-0.600000X0.600000X0*%
%TD*%
%TA.AperFunction,Conductor*%
%ADD15C,1.250000*%
%TD*%
G04 APERTURE END LIST*
D10*
X85090000Y-106680000D02*
X127635000Y-106680000D01*
X127635000Y-106680000D02*
X127635000Y-147320000D01*
X127635000Y-147320000D02*
X85090000Y-147320000D01*
X85090000Y-147320000D02*
X85090000Y-106680000D01*
D11*
%TO.P,U1,15,GPIO11*%
%TO.N,unconnected-(U1-Pad15)*%
X97790000Y-107950000D03*
%TO.P,U1,16,GPIO12*%
%TO.N,Net-(U1-Pad16)*%
X97790000Y-110490000D03*
%TO.P,U1,17,GPIO13*%
%TO.N,Net-(U1-Pad17)*%
X97790000Y-113030000D03*
D12*
%TO.P,U1,18,GND*%
%TO.N,GND*%
X97790000Y-115570000D03*
D11*
%TO.P,U1,19,GPIO14*%
%TO.N,Net-(U1-Pad19)*%
X97790000Y-118110000D03*
%TO.P,U1,20,GPIO15*%
%TO.N,Net-(U1-Pad20)*%
X97790000Y-120650000D03*
%TO.P,U1,21,GPIO16*%
%TO.N,Net-(U1-Pad21)*%
X115570000Y-120650000D03*
%TO.P,U1,22,GPIO17*%
%TO.N,Net-(U1-Pad22)*%
X115570000Y-118110000D03*
D12*
%TO.P,U1,23,GND*%
%TO.N,GND*%
X115570000Y-115570000D03*
D11*
%TO.P,U1,24,GPIO18*%
%TO.N,Net-(U1-Pad24)*%
X115570000Y-113030000D03*
%TO.P,U1,25,GPIO19*%
%TO.N,Net-(U1-Pad25)*%
X115570000Y-110490000D03*
%TO.P,U1,26,GPIO20*%
%TO.N,unconnected-(U1-Pad26)*%
X115570000Y-107950000D03*
%TO.P,U1,41,SWCLK*%
%TO.N,Net-(U1-Pad41)*%
X104140000Y-120420000D03*
D12*
%TO.P,U1,42,GND*%
%TO.N,GND*%
X106680000Y-120420000D03*
D11*
%TO.P,U1,43,SWDIO*%
%TO.N,Net-(U1-Pad43)*%
X109220000Y-120420000D03*
%TD*%
D12*
%TO.P,J2,1,Pin_1*%
%TO.N,Net-(U1-Pad41)*%
X104140000Y-126796800D03*
D11*
%TO.P,J2,2,Pin_2*%
%TO.N,GND*%
X106680000Y-126796800D03*
%TO.P,J2,3,Pin_3*%
%TO.N,Net-(U1-Pad43)*%
X109220000Y-126796800D03*
%TD*%
D13*
%TO.P,J1,10,Pin_10*%
%TO.N,GND*%
X116222500Y-140335000D03*
%TO.P,J1,9,Pin_9*%
X113682500Y-140335000D03*
%TO.P,J1,8,Pin_8*%
%TO.N,Net-(U1-Pad25)*%
X116222500Y-137795000D03*
%TO.P,J1,7,Pin_7*%
%TO.N,Net-(U1-Pad16)*%
X113682500Y-137795000D03*
%TO.P,J1,6,Pin_6*%
%TO.N,Net-(U1-Pad24)*%
X116222500Y-135255000D03*
%TO.P,J1,5,Pin_5*%
%TO.N,Net-(U1-Pad17)*%
X113682500Y-135255000D03*
%TO.P,J1,4,Pin_4*%
%TO.N,Net-(U1-Pad22)*%
X116222500Y-132715000D03*
%TO.P,J1,3,Pin_3*%
%TO.N,Net-(U1-Pad19)*%
X113682500Y-132715000D03*
%TO.P,J1,2,Pin_2*%
%TO.N,Net-(U1-Pad21)*%
X116222500Y-130175000D03*
D14*
%TO.P,J1,1,Pin_1*%
%TO.N,Net-(U1-Pad20)*%
X113682500Y-130175000D03*
%TD*%
D15*
%TO.N,GND*%
X113682500Y-140335000D02*
X116222500Y-140335000D01*
X109855000Y-140335000D02*
X113682500Y-140335000D01*
X106680000Y-137160000D02*
X109855000Y-140335000D01*
X106680000Y-126796800D02*
X106680000Y-137160000D01*
%TD*%
%TA.AperFunction,Conductor*%
%TO.N,GND*%
G36*
X96459096Y-107335002D02*
G01*
X96505589Y-107388658D01*
X96515693Y-107458932D01*
X96510552Y-107479267D01*
X96510688Y-107479305D01*
X96450989Y-107694570D01*
X96427251Y-107916695D01*
X96427548Y-107921848D01*
X96427548Y-107921851D01*
X96433011Y-108016590D01*
X96440110Y-108139715D01*
X96441247Y-108144761D01*
X96441248Y-108144767D01*
X96461119Y-108232939D01*
X96489222Y-108357639D01*
X96573266Y-108564616D01*
X96689987Y-108755088D01*
X96836250Y-108923938D01*
X97008126Y-109066632D01*
X97078595Y-109107811D01*
X97081445Y-109109476D01*
X97130169Y-109161114D01*
X97143240Y-109230897D01*
X97116509Y-109296669D01*
X97076055Y-109330027D01*
X97063607Y-109336507D01*
X97059474Y-109339610D01*
X97059471Y-109339612D01*
X97035247Y-109357800D01*
X96884965Y-109470635D01*
X96730629Y-109632138D01*
X96604743Y-109816680D01*
X96510688Y-110019305D01*
X96450989Y-110234570D01*
X96427251Y-110456695D01*
X96427548Y-110461848D01*
X96427548Y-110461851D01*
X96433011Y-110556590D01*
X96440110Y-110679715D01*
X96441247Y-110684761D01*
X96441248Y-110684767D01*
X96461119Y-110772939D01*
X96489222Y-110897639D01*
X96573266Y-111104616D01*
X96689987Y-111295088D01*
X96836250Y-111463938D01*
X97008126Y-111606632D01*
X97078595Y-111647811D01*
X97081445Y-111649476D01*
X97130169Y-111701114D01*
X97143240Y-111770897D01*
X97116509Y-111836669D01*
X97076055Y-111870027D01*
X97063607Y-111876507D01*
X97059474Y-111879610D01*
X97059471Y-111879612D01*
X97035247Y-111897800D01*
X96884965Y-112010635D01*
X96730629Y-112172138D01*
X96604743Y-112356680D01*
X96510688Y-112559305D01*
X96450989Y-112774570D01*
X96427251Y-112996695D01*
X96427548Y-113001848D01*
X96427548Y-113001851D01*
X96433011Y-113096590D01*
X96440110Y-113219715D01*
X96441247Y-113224761D01*
X96441248Y-113224767D01*
X96461119Y-113312939D01*
X96489222Y-113437639D01*
X96573266Y-113644616D01*
X96689987Y-113835088D01*
X96836250Y-114003938D01*
X96840225Y-114007238D01*
X96840231Y-114007244D01*
X96845425Y-114011556D01*
X96885059Y-114070460D01*
X96886555Y-114141441D01*
X96849439Y-114201962D01*
X96809168Y-114226480D01*
X96701946Y-114266676D01*
X96686351Y-114275214D01*
X96584276Y-114351715D01*
X96571715Y-114364276D01*
X96495214Y-114466351D01*
X96486676Y-114481946D01*
X96441522Y-114602394D01*
X96437895Y-114617649D01*
X96432369Y-114668514D01*
X96432000Y-114675328D01*
X96432000Y-115297885D01*
X96436475Y-115313124D01*
X96437865Y-115314329D01*
X96445548Y-115316000D01*
X99129884Y-115316000D01*
X99145123Y-115311525D01*
X99146328Y-115310135D01*
X99147999Y-115302452D01*
X99147999Y-114675331D01*
X99147629Y-114668510D01*
X99142105Y-114617648D01*
X99138479Y-114602396D01*
X99093324Y-114481946D01*
X99084786Y-114466351D01*
X99008285Y-114364276D01*
X98995724Y-114351715D01*
X98893649Y-114275214D01*
X98878054Y-114266676D01*
X98767813Y-114225348D01*
X98711049Y-114182706D01*
X98686349Y-114116145D01*
X98701557Y-114046796D01*
X98723104Y-114018115D01*
X98824430Y-113917144D01*
X98824440Y-113917132D01*
X98828096Y-113913489D01*
X98887594Y-113830689D01*
X98955435Y-113736277D01*
X98958453Y-113732077D01*
X99057430Y-113531811D01*
X99122370Y-113318069D01*
X99151529Y-113096590D01*
X99153156Y-113030000D01*
X99134852Y-112807361D01*
X99080431Y-112590702D01*
X98991354Y-112385840D01*
X98870014Y-112198277D01*
X98719670Y-112033051D01*
X98715619Y-112029852D01*
X98715615Y-112029848D01*
X98548414Y-111897800D01*
X98548410Y-111897798D01*
X98544359Y-111894598D01*
X98503053Y-111871796D01*
X98453084Y-111821364D01*
X98438312Y-111751921D01*
X98463428Y-111685516D01*
X98490780Y-111658909D01*
X98534603Y-111627650D01*
X98669860Y-111531173D01*
X98828096Y-111373489D01*
X98887594Y-111290689D01*
X98955435Y-111196277D01*
X98958453Y-111192077D01*
X99057430Y-110991811D01*
X99122370Y-110778069D01*
X99151529Y-110556590D01*
X99153156Y-110490000D01*
X99134852Y-110267361D01*
X99080431Y-110050702D01*
X98991354Y-109845840D01*
X98870014Y-109658277D01*
X98719670Y-109493051D01*
X98715619Y-109489852D01*
X98715615Y-109489848D01*
X98548414Y-109357800D01*
X98548410Y-109357798D01*
X98544359Y-109354598D01*
X98503053Y-109331796D01*
X98453084Y-109281364D01*
X98438312Y-109211921D01*
X98463428Y-109145516D01*
X98490780Y-109118909D01*
X98534603Y-109087650D01*
X98669860Y-108991173D01*
X98828096Y-108833489D01*
X98887594Y-108750689D01*
X98955435Y-108656277D01*
X98958453Y-108652077D01*
X99057430Y-108451811D01*
X99122370Y-108238069D01*
X99151529Y-108016590D01*
X99153156Y-107950000D01*
X99134852Y-107727361D01*
X99080431Y-107510702D01*
X99071969Y-107491240D01*
X99063149Y-107420796D01*
X99093816Y-107356764D01*
X99154233Y-107319476D01*
X99187519Y-107315000D01*
X114170975Y-107315000D01*
X114239096Y-107335002D01*
X114285589Y-107388658D01*
X114295693Y-107458932D01*
X114290552Y-107479267D01*
X114290688Y-107479305D01*
X114230989Y-107694570D01*
X114207251Y-107916695D01*
X114207548Y-107921848D01*
X114207548Y-107921851D01*
X114213011Y-108016590D01*
X114220110Y-108139715D01*
X114221247Y-108144761D01*
X114221248Y-108144767D01*
X114241119Y-108232939D01*
X114269222Y-108357639D01*
X114353266Y-108564616D01*
X114469987Y-108755088D01*
X114616250Y-108923938D01*
X114788126Y-109066632D01*
X114858595Y-109107811D01*
X114861445Y-109109476D01*
X114910169Y-109161114D01*
X114923240Y-109230897D01*
X114896509Y-109296669D01*
X114856055Y-109330027D01*
X114843607Y-109336507D01*
X114839474Y-109339610D01*
X114839471Y-109339612D01*
X114815247Y-109357800D01*
X114664965Y-109470635D01*
X114510629Y-109632138D01*
X114384743Y-109816680D01*
X114290688Y-110019305D01*
X114230989Y-110234570D01*
X114207251Y-110456695D01*
X114207548Y-110461848D01*
X114207548Y-110461851D01*
X114213011Y-110556590D01*
X114220110Y-110679715D01*
X114221247Y-110684761D01*
X114221248Y-110684767D01*
X114241119Y-110772939D01*
X114269222Y-110897639D01*
X114353266Y-111104616D01*
X114469987Y-111295088D01*
X114616250Y-111463938D01*
X114788126Y-111606632D01*
X114858595Y-111647811D01*
X114861445Y-111649476D01*
X114910169Y-111701114D01*
X114923240Y-111770897D01*
X114896509Y-111836669D01*
X114856055Y-111870027D01*
X114843607Y-111876507D01*
X114839474Y-111879610D01*
X114839471Y-111879612D01*
X114815247Y-111897800D01*
X114664965Y-112010635D01*
X114510629Y-112172138D01*
X114384743Y-112356680D01*
X114290688Y-112559305D01*
X114230989Y-112774570D01*
X114207251Y-112996695D01*
X114207548Y-113001848D01*
X114207548Y-113001851D01*
X114213011Y-113096590D01*
X114220110Y-113219715D01*
X114221247Y-113224761D01*
X114221248Y-113224767D01*
X114241119Y-113312939D01*
X114269222Y-113437639D01*
X114353266Y-113644616D01*
X114469987Y-113835088D01*
X114616250Y-114003938D01*
X114620225Y-114007238D01*
X114620231Y-114007244D01*
X114625425Y-114011556D01*
X114665059Y-114070460D01*
X114666555Y-114141441D01*
X114629439Y-114201962D01*
X114589168Y-114226480D01*
X114481946Y-114266676D01*
X114466351Y-114275214D01*
X114364276Y-114351715D01*
X114351715Y-114364276D01*
X114275214Y-114466351D01*
X114266676Y-114481946D01*
X114221522Y-114602394D01*
X114217895Y-114617649D01*
X114212369Y-114668514D01*
X114212000Y-114675328D01*
X114212000Y-115297885D01*
X114216475Y-115313124D01*
X114217865Y-115314329D01*
X114225548Y-115316000D01*
X116909884Y-115316000D01*
X116925123Y-115311525D01*
X116926328Y-115310135D01*
X116927999Y-115302452D01*
X116927999Y-114675331D01*
X116927629Y-114668510D01*
X116922105Y-114617648D01*
X116918479Y-114602396D01*
X116873324Y-114481946D01*
X116864786Y-114466351D01*
X116788285Y-114364276D01*
X116775724Y-114351715D01*
X116673649Y-114275214D01*
X116658054Y-114266676D01*
X116547813Y-114225348D01*
X116491049Y-114182706D01*
X116466349Y-114116145D01*
X116481557Y-114046796D01*
X116503104Y-114018115D01*
X116604430Y-113917144D01*
X116604440Y-113917132D01*
X116608096Y-113913489D01*
X116667594Y-113830689D01*
X116735435Y-113736277D01*
X116738453Y-113732077D01*
X116837430Y-113531811D01*
X116902370Y-113318069D01*
X116931529Y-113096590D01*
X116933156Y-113030000D01*
X116914852Y-112807361D01*
X116860431Y-112590702D01*
X116771354Y-112385840D01*
X116650014Y-112198277D01*
X116499670Y-112033051D01*
X116495619Y-112029852D01*
X116495615Y-112029848D01*
X116328414Y-111897800D01*
X116328410Y-111897798D01*
X116324359Y-111894598D01*
X116283053Y-111871796D01*
X116233084Y-111821364D01*
X116218312Y-111751921D01*
X116243428Y-111685516D01*
X116270780Y-111658909D01*
X116314603Y-111627650D01*
X116449860Y-111531173D01*
X116608096Y-111373489D01*
X116667594Y-111290689D01*
X116735435Y-111196277D01*
X116738453Y-111192077D01*
X116837430Y-110991811D01*
X116902370Y-110778069D01*
X116931529Y-110556590D01*
X116933156Y-110490000D01*
X116914852Y-110267361D01*
X116860431Y-110050702D01*
X116771354Y-109845840D01*
X116650014Y-109658277D01*
X116499670Y-109493051D01*
X116495619Y-109489852D01*
X116495615Y-109489848D01*
X116328414Y-109357800D01*
X116328410Y-109357798D01*
X116324359Y-109354598D01*
X116283053Y-109331796D01*
X116233084Y-109281364D01*
X116218312Y-109211921D01*
X116243428Y-109145516D01*
X116270780Y-109118909D01*
X116314603Y-109087650D01*
X116449860Y-108991173D01*
X116608096Y-108833489D01*
X116667594Y-108750689D01*
X116735435Y-108656277D01*
X116738453Y-108652077D01*
X116837430Y-108451811D01*
X116902370Y-108238069D01*
X116931529Y-108016590D01*
X116933156Y-107950000D01*
X116914852Y-107727361D01*
X116860431Y-107510702D01*
X116851969Y-107491240D01*
X116843149Y-107420796D01*
X116873816Y-107356764D01*
X116934233Y-107319476D01*
X116967519Y-107315000D01*
X126874000Y-107315000D01*
X126942121Y-107335002D01*
X126988614Y-107388658D01*
X127000000Y-107441000D01*
X127000000Y-146559000D01*
X126979998Y-146627121D01*
X126926342Y-146673614D01*
X126874000Y-146685000D01*
X85851000Y-146685000D01*
X85782879Y-146664998D01*
X85736386Y-146611342D01*
X85725000Y-146559000D01*
X85725000Y-141459853D01*
X112922477Y-141459853D01*
X112927758Y-141466907D01*
X113089256Y-141561279D01*
X113098542Y-141565729D01*
X113297501Y-141641703D01*
X113307399Y-141644579D01*
X113516095Y-141687038D01*
X113526323Y-141688257D01*
X113739150Y-141696062D01*
X113749436Y-141695595D01*
X113960685Y-141668534D01*
X113970762Y-141666392D01*
X114174755Y-141605191D01*
X114184342Y-141601433D01*
X114375598Y-141507738D01*
X114384444Y-141502465D01*
X114431747Y-141468723D01*
X114438711Y-141459853D01*
X115462477Y-141459853D01*
X115467758Y-141466907D01*
X115629256Y-141561279D01*
X115638542Y-141565729D01*
X115837501Y-141641703D01*
X115847399Y-141644579D01*
X116056095Y-141687038D01*
X116066323Y-141688257D01*
X116279150Y-141696062D01*
X116289436Y-141695595D01*
X116500685Y-141668534D01*
X116510762Y-141666392D01*
X116714755Y-141605191D01*
X116724342Y-141601433D01*
X116915598Y-141507738D01*
X116924444Y-141502465D01*
X116971747Y-141468723D01*
X116980148Y-141458023D01*
X116973160Y-141444870D01*
X116235312Y-140707022D01*
X116221368Y-140699408D01*
X116219535Y-140699539D01*
X116212920Y-140703790D01*
X115469237Y-141447473D01*
X115462477Y-141459853D01*
X114438711Y-141459853D01*
X114440148Y-141458023D01*
X114433160Y-141444870D01*
X113695312Y-140707022D01*
X113681368Y-140699408D01*
X113679535Y-140699539D01*
X113672920Y-140703790D01*
X112929237Y-141447473D01*
X112922477Y-141459853D01*
X85725000Y-141459853D01*
X85725000Y-140306863D01*
X112320550Y-140306863D01*
X112332809Y-140519477D01*
X112334245Y-140529697D01*
X112381065Y-140737446D01*
X112384145Y-140747275D01*
X112464270Y-140944603D01*
X112468913Y-140953794D01*
X112548960Y-141084420D01*
X112559416Y-141093880D01*
X112568194Y-141090096D01*
X113310478Y-140347812D01*
X113316856Y-140336132D01*
X114046908Y-140336132D01*
X114047039Y-140337965D01*
X114051290Y-140344580D01*
X114792974Y-141086264D01*
X114804984Y-141092823D01*
X114816723Y-141083855D01*
X114850522Y-141036819D01*
X114851649Y-141037629D01*
X114899159Y-140993881D01*
X114969096Y-140981661D01*
X115034538Y-141009191D01*
X115062370Y-141041029D01*
X115088959Y-141084419D01*
X115099416Y-141093880D01*
X115108194Y-141090096D01*
X115850478Y-140347812D01*
X115856856Y-140336132D01*
X116586908Y-140336132D01*
X116587039Y-140337965D01*
X116591290Y-140344580D01*
X117332974Y-141086264D01*
X117344984Y-141092823D01*
X117356723Y-141083855D01*
X117387504Y-141041019D01*
X117392815Y-141032180D01*
X117487170Y-140841267D01*
X117490969Y-140831672D01*
X117552876Y-140627915D01*
X117555055Y-140617834D01*
X117583090Y-140404887D01*
X117583609Y-140398212D01*
X117585072Y-140338364D01*
X117584878Y-140331646D01*
X117567281Y-140117604D01*
X117565596Y-140107424D01*
X117513714Y-139900875D01*
X117510394Y-139891124D01*
X117425472Y-139695814D01*
X117420605Y-139686739D01*
X117355563Y-139586197D01*
X117344877Y-139576995D01*
X117335312Y-139581398D01*
X116594522Y-140322188D01*
X116586908Y-140336132D01*
X115856856Y-140336132D01*
X115858092Y-140333868D01*
X115857961Y-140332035D01*
X115853710Y-140325420D01*
X115112349Y-139584059D01*
X115100813Y-139577759D01*
X115088528Y-139587384D01*
X115055692Y-139635520D01*
X115000781Y-139680523D01*
X114930256Y-139688694D01*
X114866509Y-139657440D01*
X114845811Y-139632955D01*
X114815562Y-139586197D01*
X114804877Y-139576995D01*
X114795312Y-139581398D01*
X114054522Y-140322188D01*
X114046908Y-140336132D01*
X113316856Y-140336132D01*
X113318092Y-140333868D01*
X113317961Y-140332035D01*
X113313710Y-140325420D01*
X112572349Y-139584059D01*
X112560813Y-139577759D01*
X112548531Y-139587382D01*
X112500589Y-139657662D01*
X112495504Y-139666613D01*
X112405838Y-139859783D01*
X112402275Y-139869470D01*
X112345364Y-140074681D01*
X112343433Y-140084800D01*
X112320802Y-140296574D01*
X112320550Y-140306863D01*
X85725000Y-140306863D01*
X85725000Y-137761695D01*
X112319751Y-137761695D01*
X112320048Y-137766848D01*
X112320048Y-137766851D01*
X112325511Y-137861590D01*
X112332610Y-137984715D01*
X112333747Y-137989761D01*
X112333748Y-137989767D01*
X112353619Y-138077939D01*
X112381722Y-138202639D01*
X112465766Y-138409616D01*
X112516519Y-138492438D01*
X112579791Y-138595688D01*
X112582487Y-138600088D01*
X112728750Y-138768938D01*
X112900626Y-138911632D01*
X112974455Y-138954774D01*
X113023179Y-139006412D01*
X113036250Y-139076195D01*
X113009519Y-139141967D01*
X112969062Y-139175327D01*
X112960960Y-139179544D01*
X112952234Y-139185039D01*
X112932177Y-139200099D01*
X112923723Y-139211427D01*
X112930468Y-139223758D01*
X113669688Y-139962978D01*
X113683632Y-139970592D01*
X113685465Y-139970461D01*
X113692080Y-139966210D01*
X114435889Y-139222401D01*
X114442910Y-139209544D01*
X114436111Y-139200213D01*
X114432059Y-139197521D01*
X114395102Y-139177120D01*
X114345131Y-139126687D01*
X114330359Y-139057245D01*
X114355475Y-138990839D01*
X114382827Y-138964232D01*
X114406297Y-138947491D01*
X114562360Y-138836173D01*
X114720596Y-138678489D01*
X114780094Y-138595689D01*
X114850953Y-138497077D01*
X114852276Y-138498028D01*
X114899145Y-138454857D01*
X114969080Y-138442625D01*
X115034526Y-138470144D01*
X115062375Y-138501994D01*
X115122487Y-138600088D01*
X115268750Y-138768938D01*
X115440626Y-138911632D01*
X115514455Y-138954774D01*
X115563179Y-139006412D01*
X115576250Y-139076195D01*
X115549519Y-139141967D01*
X115509062Y-139175327D01*
X115500960Y-139179544D01*
X115492234Y-139185039D01*
X115472177Y-139200099D01*
X115463723Y-139211427D01*
X115470468Y-139223758D01*
X116209688Y-139962978D01*
X116223632Y-139970592D01*
X116225465Y-139970461D01*
X116232080Y-139966210D01*
X116975889Y-139222401D01*
X116982910Y-139209544D01*
X116976111Y-139200213D01*
X116972059Y-139197521D01*
X116935102Y-139177120D01*
X116885131Y-139126687D01*
X116870359Y-139057245D01*
X116895475Y-138990839D01*
X116922827Y-138964232D01*
X116946297Y-138947491D01*
X117102360Y-138836173D01*
X117260596Y-138678489D01*
X117320094Y-138595689D01*
X117387935Y-138501277D01*
X117390953Y-138497077D01*
X117411820Y-138454857D01*
X117487636Y-138301453D01*
X117487637Y-138301451D01*
X117489930Y-138296811D01*
X117554870Y-138083069D01*
X117584029Y-137861590D01*
X117585656Y-137795000D01*
X117567352Y-137572361D01*
X117512931Y-137355702D01*
X117423854Y-137150840D01*
X117302514Y-136963277D01*
X117152170Y-136798051D01*
X117148119Y-136794852D01*
X117148115Y-136794848D01*
X116980914Y-136662800D01*
X116980910Y-136662798D01*
X116976859Y-136659598D01*
X116935553Y-136636796D01*
X116885584Y-136586364D01*
X116870812Y-136516921D01*
X116895928Y-136450516D01*
X116923280Y-136423909D01*
X116967103Y-136392650D01*
X117102360Y-136296173D01*
X117260596Y-136138489D01*
X117320094Y-136055689D01*
X117387935Y-135961277D01*
X117390953Y-135957077D01*
X117411820Y-135914857D01*
X117487636Y-135761453D01*
X117487637Y-135761451D01*
X117489930Y-135756811D01*
X117554870Y-135543069D01*
X117584029Y-135321590D01*
X117585656Y-135255000D01*
X117567352Y-135032361D01*
X117512931Y-134815702D01*
X117423854Y-134610840D01*
X117302514Y-134423277D01*
X117152170Y-134258051D01*
X117148119Y-134254852D01*
X117148115Y-134254848D01*
X116980914Y-134122800D01*
X116980910Y-134122798D01*
X116976859Y-134119598D01*
X116935553Y-134096796D01*
X116885584Y-134046364D01*
X116870812Y-133976921D01*
X116895928Y-133910516D01*
X116923280Y-133883909D01*
X116967103Y-133852650D01*
X117102360Y-133756173D01*
X117260596Y-133598489D01*
X117320094Y-133515689D01*
X117387935Y-133421277D01*
X117390953Y-133417077D01*
X117411820Y-133374857D01*
X117487636Y-133221453D01*
X117487637Y-133221451D01*
X117489930Y-133216811D01*
X117554870Y-133003069D01*
X117584029Y-132781590D01*
X117585656Y-132715000D01*
X117567352Y-132492361D01*
X117512931Y-132275702D01*
X117423854Y-132070840D01*
X117302514Y-131883277D01*
X117152170Y-131718051D01*
X117148116Y-131714849D01*
X117148115Y-131714848D01*
X116980914Y-131582800D01*
X116980910Y-131582798D01*
X116976859Y-131579598D01*
X116935553Y-131556796D01*
X116885584Y-131506364D01*
X116870812Y-131436921D01*
X116895928Y-131370516D01*
X116923280Y-131343909D01*
X116967103Y-131312650D01*
X117102360Y-131216173D01*
X117260596Y-131058489D01*
X117390953Y-130877077D01*
X117418108Y-130822134D01*
X117487636Y-130681453D01*
X117487637Y-130681451D01*
X117489930Y-130676811D01*
X117554870Y-130463069D01*
X117584029Y-130241590D01*
X117585656Y-130175000D01*
X117567352Y-129952361D01*
X117512931Y-129735702D01*
X117423854Y-129530840D01*
X117302514Y-129343277D01*
X117152170Y-129178051D01*
X117148119Y-129174852D01*
X117148115Y-129174848D01*
X116980914Y-129042800D01*
X116980910Y-129042798D01*
X116976859Y-129039598D01*
X116781289Y-128931638D01*
X116776420Y-128929914D01*
X116776416Y-128929912D01*
X116575587Y-128858795D01*
X116575583Y-128858794D01*
X116570712Y-128857069D01*
X116565619Y-128856162D01*
X116565616Y-128856161D01*
X116355873Y-128818800D01*
X116355867Y-128818799D01*
X116350784Y-128817894D01*
X116276952Y-128816992D01*
X116132581Y-128815228D01*
X116132579Y-128815228D01*
X116127411Y-128815165D01*
X115906591Y-128848955D01*
X115694256Y-128918357D01*
X115663943Y-128934137D01*
X115574178Y-128980866D01*
X115496107Y-129021507D01*
X115491974Y-129024610D01*
X115491971Y-129024612D01*
X115321600Y-129152530D01*
X115317465Y-129155635D01*
X115226281Y-129251054D01*
X115183527Y-129295793D01*
X115122003Y-129331223D01*
X115051090Y-129327766D01*
X114993304Y-129286520D01*
X114978333Y-129262194D01*
X114976365Y-129257994D01*
X114974050Y-129251054D01*
X114880978Y-129100652D01*
X114755803Y-128975695D01*
X114681530Y-128929912D01*
X114611468Y-128886725D01*
X114611466Y-128886724D01*
X114605238Y-128882885D01*
X114444754Y-128829655D01*
X114443889Y-128829368D01*
X114443887Y-128829368D01*
X114437361Y-128827203D01*
X114430525Y-128826503D01*
X114430522Y-128826502D01*
X114387469Y-128822091D01*
X114332900Y-128816500D01*
X113032100Y-128816500D01*
X113028854Y-128816837D01*
X113028850Y-128816837D01*
X112933192Y-128826762D01*
X112933188Y-128826763D01*
X112926334Y-128827474D01*
X112919798Y-128829655D01*
X112919796Y-128829655D01*
X112857131Y-128850562D01*
X112758554Y-128883450D01*
X112608152Y-128976522D01*
X112602979Y-128981704D01*
X112545186Y-129039598D01*
X112483195Y-129101697D01*
X112479355Y-129107927D01*
X112479354Y-129107928D01*
X112394966Y-129244831D01*
X112390385Y-129252262D01*
X112334703Y-129420139D01*
X112324000Y-129524600D01*
X112324000Y-130825400D01*
X112324337Y-130828646D01*
X112324337Y-130828650D01*
X112329798Y-130881277D01*
X112334974Y-130931166D01*
X112337155Y-130937702D01*
X112337155Y-130937704D01*
X112381228Y-131069806D01*
X112390950Y-131098946D01*
X112484022Y-131249348D01*
X112609197Y-131374305D01*
X112615427Y-131378145D01*
X112615428Y-131378146D01*
X112628355Y-131386114D01*
X112759762Y-131467115D01*
X112766709Y-131469419D01*
X112768776Y-131470383D01*
X112822061Y-131517299D01*
X112841523Y-131585576D01*
X112820982Y-131653536D01*
X112791181Y-131685337D01*
X112777465Y-131695635D01*
X112623129Y-131857138D01*
X112497243Y-132041680D01*
X112403188Y-132244305D01*
X112343489Y-132459570D01*
X112319751Y-132681695D01*
X112320048Y-132686848D01*
X112320048Y-132686851D01*
X112325511Y-132781590D01*
X112332610Y-132904715D01*
X112333747Y-132909761D01*
X112333748Y-132909767D01*
X112353619Y-132997939D01*
X112381722Y-133122639D01*
X112465766Y-133329616D01*
X112516519Y-133412438D01*
X112579791Y-133515688D01*
X112582487Y-133520088D01*
X112728750Y-133688938D01*
X112900626Y-133831632D01*
X112971095Y-133872811D01*
X112973945Y-133874476D01*
X113022669Y-133926114D01*
X113035740Y-133995897D01*
X113009009Y-134061669D01*
X112968555Y-134095027D01*
X112956107Y-134101507D01*
X112951974Y-134104610D01*
X112951971Y-134104612D01*
X112927747Y-134122800D01*
X112777465Y-134235635D01*
X112623129Y-134397138D01*
X112497243Y-134581680D01*
X112403188Y-134784305D01*
X112343489Y-134999570D01*
X112319751Y-135221695D01*
X112320048Y-135226848D01*
X112320048Y-135226851D01*
X112325511Y-135321590D01*
X112332610Y-135444715D01*
X112333747Y-135449761D01*
X112333748Y-135449767D01*
X112353619Y-135537939D01*
X112381722Y-135662639D01*
X112465766Y-135869616D01*
X112516519Y-135952438D01*
X112579791Y-136055688D01*
X112582487Y-136060088D01*
X112728750Y-136228938D01*
X112900626Y-136371632D01*
X112971095Y-136412811D01*
X112973945Y-136414476D01*
X113022669Y-136466114D01*
X113035740Y-136535897D01*
X113009009Y-136601669D01*
X112968555Y-136635027D01*
X112956107Y-136641507D01*
X112951974Y-136644610D01*
X112951971Y-136644612D01*
X112927747Y-136662800D01*
X112777465Y-136775635D01*
X112623129Y-136937138D01*
X112497243Y-137121680D01*
X112403188Y-137324305D01*
X112343489Y-137539570D01*
X112319751Y-137761695D01*
X85725000Y-137761695D01*
X85725000Y-127694934D01*
X102781500Y-127694934D01*
X102788255Y-127757116D01*
X102839385Y-127893505D01*
X102926739Y-128010061D01*
X103043295Y-128097415D01*
X103179684Y-128148545D01*
X103241866Y-128155300D01*
X105038134Y-128155300D01*
X105100316Y-128148545D01*
X105236705Y-128097415D01*
X105353261Y-128010061D01*
X105440615Y-127893505D01*
X105484798Y-127775648D01*
X105527440Y-127718884D01*
X105594001Y-127694184D01*
X105663350Y-127709392D01*
X105698017Y-127737380D01*
X105723218Y-127766473D01*
X105730580Y-127773683D01*
X105894434Y-127909716D01*
X105902881Y-127915631D01*
X106086756Y-128023079D01*
X106096042Y-128027529D01*
X106295001Y-128103503D01*
X106304899Y-128106379D01*
X106408250Y-128127406D01*
X106422299Y-128126210D01*
X106426000Y-128115865D01*
X106426000Y-128115317D01*
X106934000Y-128115317D01*
X106938064Y-128129159D01*
X106951478Y-128131193D01*
X106958184Y-128130334D01*
X106968262Y-128128192D01*
X107172255Y-128066991D01*
X107181842Y-128063233D01*
X107373095Y-127969539D01*
X107381945Y-127964264D01*
X107555328Y-127840592D01*
X107563200Y-127833939D01*
X107714052Y-127683612D01*
X107720730Y-127675765D01*
X107848022Y-127498619D01*
X107849279Y-127499522D01*
X107896373Y-127456162D01*
X107966311Y-127443945D01*
X108031751Y-127471478D01*
X108059579Y-127503311D01*
X108119987Y-127601888D01*
X108266250Y-127770738D01*
X108438126Y-127913432D01*
X108631000Y-128026138D01*
X108839692Y-128105830D01*
X108844760Y-128106861D01*
X108844763Y-128106862D01*
X108939862Y-128126210D01*
X109058597Y-128150367D01*
X109063772Y-128150557D01*
X109063774Y-128150557D01*
X109276673Y-128158364D01*
X109276677Y-128158364D01*
X109281837Y-128158553D01*
X109286957Y-128157897D01*
X109286959Y-128157897D01*
X109498288Y-128130825D01*
X109498289Y-128130825D01*
X109503416Y-128130168D01*
X109508366Y-128128683D01*
X109712429Y-128067461D01*
X109712434Y-128067459D01*
X109717384Y-128065974D01*
X109917994Y-127967696D01*
X110099860Y-127837973D01*
X110258096Y-127680289D01*
X110388453Y-127498877D01*
X110401995Y-127471478D01*
X110485136Y-127303253D01*
X110485137Y-127303251D01*
X110487430Y-127298611D01*
X110552370Y-127084869D01*
X110581529Y-126863390D01*
X110583156Y-126796800D01*
X110564852Y-126574161D01*
X110510431Y-126357502D01*
X110421354Y-126152640D01*
X110300014Y-125965077D01*
X110149670Y-125799851D01*
X110145619Y-125796652D01*
X110145615Y-125796648D01*
X109978414Y-125664600D01*
X109978410Y-125664598D01*
X109974359Y-125661398D01*
X109938028Y-125641342D01*
X109922136Y-125632569D01*
X109778789Y-125553438D01*
X109773920Y-125551714D01*
X109773916Y-125551712D01*
X109573087Y-125480595D01*
X109573083Y-125480594D01*
X109568212Y-125478869D01*
X109563119Y-125477962D01*
X109563116Y-125477961D01*
X109353373Y-125440600D01*
X109353367Y-125440599D01*
X109348284Y-125439694D01*
X109274452Y-125438792D01*
X109130081Y-125437028D01*
X109130079Y-125437028D01*
X109124911Y-125436965D01*
X108904091Y-125470755D01*
X108691756Y-125540157D01*
X108493607Y-125643307D01*
X108489474Y-125646410D01*
X108489471Y-125646412D01*
X108319100Y-125774330D01*
X108314965Y-125777435D01*
X108160629Y-125938938D01*
X108157715Y-125943210D01*
X108157714Y-125943211D01*
X108052898Y-126096866D01*
X107997987Y-126141869D01*
X107927462Y-126150040D01*
X107863715Y-126118786D01*
X107843018Y-126094302D01*
X107762426Y-125969726D01*
X107756136Y-125961557D01*
X107612806Y-125804040D01*
X107605273Y-125797015D01*
X107438139Y-125665022D01*
X107429552Y-125659317D01*
X107243117Y-125556399D01*
X107233705Y-125552169D01*
X107032959Y-125481080D01*
X107022988Y-125478446D01*
X106951837Y-125465772D01*
X106938540Y-125467232D01*
X106934000Y-125481789D01*
X106934000Y-128115317D01*
X106426000Y-128115317D01*
X106426000Y-125479902D01*
X106422082Y-125466558D01*
X106407806Y-125464571D01*
X106369324Y-125470460D01*
X106359288Y-125472851D01*
X106156868Y-125539012D01*
X106147359Y-125543009D01*
X105958463Y-125641342D01*
X105949738Y-125646836D01*
X105779433Y-125774705D01*
X105771726Y-125781548D01*
X105694478Y-125862384D01*
X105632954Y-125897814D01*
X105562042Y-125894357D01*
X105504255Y-125853111D01*
X105485402Y-125819563D01*
X105443767Y-125708503D01*
X105440615Y-125700095D01*
X105353261Y-125583539D01*
X105236705Y-125496185D01*
X105100316Y-125445055D01*
X105038134Y-125438300D01*
X103241866Y-125438300D01*
X103179684Y-125445055D01*
X103043295Y-125496185D01*
X102926739Y-125583539D01*
X102839385Y-125700095D01*
X102788255Y-125836484D01*
X102781500Y-125898666D01*
X102781500Y-127694934D01*
X85725000Y-127694934D01*
X85725000Y-120616695D01*
X96427251Y-120616695D01*
X96427548Y-120621848D01*
X96427548Y-120621851D01*
X96433011Y-120716590D01*
X96440110Y-120839715D01*
X96441247Y-120844761D01*
X96441248Y-120844767D01*
X96461119Y-120932939D01*
X96489222Y-121057639D01*
X96573266Y-121264616D01*
X96689987Y-121455088D01*
X96836250Y-121623938D01*
X97008126Y-121766632D01*
X97201000Y-121879338D01*
X97409692Y-121959030D01*
X97414760Y-121960061D01*
X97414763Y-121960062D01*
X97522017Y-121981883D01*
X97628597Y-122003567D01*
X97633772Y-122003757D01*
X97633774Y-122003757D01*
X97846673Y-122011564D01*
X97846677Y-122011564D01*
X97851837Y-122011753D01*
X97856957Y-122011097D01*
X97856959Y-122011097D01*
X98068288Y-121984025D01*
X98068289Y-121984025D01*
X98073416Y-121983368D01*
X98078366Y-121981883D01*
X98282429Y-121920661D01*
X98282434Y-121920659D01*
X98287384Y-121919174D01*
X98487994Y-121820896D01*
X98669860Y-121691173D01*
X98711842Y-121649338D01*
X98770488Y-121590896D01*
X98828096Y-121533489D01*
X98882679Y-121457529D01*
X98955435Y-121356277D01*
X98958453Y-121352077D01*
X98963341Y-121342188D01*
X99055136Y-121156453D01*
X99055137Y-121156451D01*
X99057430Y-121151811D01*
X99122370Y-120938069D01*
X99151529Y-120716590D01*
X99153156Y-120650000D01*
X99134852Y-120427361D01*
X99124637Y-120386695D01*
X102777251Y-120386695D01*
X102777548Y-120391848D01*
X102777548Y-120391851D01*
X102783011Y-120486590D01*
X102790110Y-120609715D01*
X102791247Y-120614761D01*
X102791248Y-120614767D01*
X102799947Y-120653365D01*
X102839222Y-120827639D01*
X102923266Y-121034616D01*
X102940307Y-121062425D01*
X102997928Y-121156453D01*
X103039987Y-121225088D01*
X103186250Y-121393938D01*
X103358126Y-121536632D01*
X103551000Y-121649338D01*
X103759692Y-121729030D01*
X103764760Y-121730061D01*
X103764763Y-121730062D01*
X103872017Y-121751883D01*
X103978597Y-121773567D01*
X103983772Y-121773757D01*
X103983774Y-121773757D01*
X104196673Y-121781564D01*
X104196677Y-121781564D01*
X104201837Y-121781753D01*
X104206957Y-121781097D01*
X104206959Y-121781097D01*
X104418288Y-121754025D01*
X104418289Y-121754025D01*
X104423416Y-121753368D01*
X104428366Y-121751883D01*
X104632429Y-121690661D01*
X104632434Y-121690659D01*
X104637384Y-121689174D01*
X104837994Y-121590896D01*
X105019860Y-121461173D01*
X105025967Y-121455088D01*
X105128479Y-121352933D01*
X105190851Y-121319017D01*
X105261658Y-121324205D01*
X105318419Y-121366851D01*
X105335401Y-121397954D01*
X105376676Y-121508054D01*
X105385214Y-121523649D01*
X105461715Y-121625724D01*
X105474276Y-121638285D01*
X105576351Y-121714786D01*
X105591946Y-121723324D01*
X105712394Y-121768478D01*
X105727649Y-121772105D01*
X105778514Y-121777631D01*
X105785328Y-121778000D01*
X106407885Y-121778000D01*
X106423124Y-121773525D01*
X106424329Y-121772135D01*
X106426000Y-121764452D01*
X106426000Y-121759884D01*
X106934000Y-121759884D01*
X106938475Y-121775123D01*
X106939865Y-121776328D01*
X106947548Y-121777999D01*
X107574669Y-121777999D01*
X107581490Y-121777629D01*
X107632352Y-121772105D01*
X107647604Y-121768479D01*
X107768054Y-121723324D01*
X107783649Y-121714786D01*
X107885724Y-121638285D01*
X107898285Y-121625724D01*
X107974786Y-121523649D01*
X107983324Y-121508054D01*
X108024225Y-121398952D01*
X108066867Y-121342188D01*
X108133428Y-121317488D01*
X108202777Y-121332696D01*
X108237444Y-121360684D01*
X108262865Y-121390031D01*
X108262869Y-121390035D01*
X108266250Y-121393938D01*
X108438126Y-121536632D01*
X108631000Y-121649338D01*
X108839692Y-121729030D01*
X108844760Y-121730061D01*
X108844763Y-121730062D01*
X108952017Y-121751883D01*
X109058597Y-121773567D01*
X109063772Y-121773757D01*
X109063774Y-121773757D01*
X109276673Y-121781564D01*
X109276677Y-121781564D01*
X109281837Y-121781753D01*
X109286957Y-121781097D01*
X109286959Y-121781097D01*
X109498288Y-121754025D01*
X109498289Y-121754025D01*
X109503416Y-121753368D01*
X109508366Y-121751883D01*
X109712429Y-121690661D01*
X109712434Y-121690659D01*
X109717384Y-121689174D01*
X109917994Y-121590896D01*
X110099860Y-121461173D01*
X110105967Y-121455088D01*
X110213993Y-121347438D01*
X110258096Y-121303489D01*
X110317594Y-121220689D01*
X110385435Y-121126277D01*
X110388453Y-121122077D01*
X110422793Y-121052596D01*
X110485136Y-120926453D01*
X110485137Y-120926451D01*
X110487430Y-120921811D01*
X110552370Y-120708069D01*
X110564400Y-120616695D01*
X114207251Y-120616695D01*
X114207548Y-120621848D01*
X114207548Y-120621851D01*
X114213011Y-120716590D01*
X114220110Y-120839715D01*
X114221247Y-120844761D01*
X114221248Y-120844767D01*
X114241119Y-120932939D01*
X114269222Y-121057639D01*
X114353266Y-121264616D01*
X114469987Y-121455088D01*
X114616250Y-121623938D01*
X114788126Y-121766632D01*
X114981000Y-121879338D01*
X115189692Y-121959030D01*
X115194760Y-121960061D01*
X115194763Y-121960062D01*
X115302017Y-121981883D01*
X115408597Y-122003567D01*
X115413772Y-122003757D01*
X115413774Y-122003757D01*
X115626673Y-122011564D01*
X115626677Y-122011564D01*
X115631837Y-122011753D01*
X115636957Y-122011097D01*
X115636959Y-122011097D01*
X115848288Y-121984025D01*
X115848289Y-121984025D01*
X115853416Y-121983368D01*
X115858366Y-121981883D01*
X116062429Y-121920661D01*
X116062434Y-121920659D01*
X116067384Y-121919174D01*
X116267994Y-121820896D01*
X116449860Y-121691173D01*
X116491842Y-121649338D01*
X116550488Y-121590896D01*
X116608096Y-121533489D01*
X116662679Y-121457529D01*
X116735435Y-121356277D01*
X116738453Y-121352077D01*
X116743341Y-121342188D01*
X116835136Y-121156453D01*
X116835137Y-121156451D01*
X116837430Y-121151811D01*
X116902370Y-120938069D01*
X116931529Y-120716590D01*
X116933156Y-120650000D01*
X116914852Y-120427361D01*
X116860431Y-120210702D01*
X116771354Y-120005840D01*
X116650014Y-119818277D01*
X116499670Y-119653051D01*
X116495619Y-119649852D01*
X116495615Y-119649848D01*
X116328414Y-119517800D01*
X116328410Y-119517798D01*
X116324359Y-119514598D01*
X116283053Y-119491796D01*
X116233084Y-119441364D01*
X116218312Y-119371921D01*
X116243428Y-119305516D01*
X116270780Y-119278909D01*
X116314603Y-119247650D01*
X116449860Y-119151173D01*
X116608096Y-118993489D01*
X116667594Y-118910689D01*
X116735435Y-118816277D01*
X116738453Y-118812077D01*
X116837430Y-118611811D01*
X116902370Y-118398069D01*
X116931529Y-118176590D01*
X116933156Y-118110000D01*
X116914852Y-117887361D01*
X116860431Y-117670702D01*
X116771354Y-117465840D01*
X116650014Y-117278277D01*
X116646540Y-117274459D01*
X116646533Y-117274450D01*
X116502435Y-117116088D01*
X116471383Y-117052242D01*
X116479779Y-116981744D01*
X116524956Y-116926976D01*
X116551400Y-116913307D01*
X116658052Y-116873325D01*
X116673649Y-116864786D01*
X116775724Y-116788285D01*
X116788285Y-116775724D01*
X116864786Y-116673649D01*
X116873324Y-116658054D01*
X116918478Y-116537606D01*
X116922105Y-116522351D01*
X116927631Y-116471486D01*
X116928000Y-116464672D01*
X116928000Y-115842115D01*
X116923525Y-115826876D01*
X116922135Y-115825671D01*
X116914452Y-115824000D01*
X114230116Y-115824000D01*
X114214877Y-115828475D01*
X114213672Y-115829865D01*
X114212001Y-115837548D01*
X114212001Y-116464669D01*
X114212371Y-116471490D01*
X114217895Y-116522352D01*
X114221521Y-116537604D01*
X114266676Y-116658054D01*
X114275214Y-116673649D01*
X114351715Y-116775724D01*
X114364276Y-116788285D01*
X114466351Y-116864786D01*
X114481946Y-116873324D01*
X114590827Y-116914142D01*
X114647591Y-116956784D01*
X114672291Y-117023345D01*
X114657083Y-117092694D01*
X114637691Y-117119175D01*
X114514200Y-117248401D01*
X114510629Y-117252138D01*
X114384743Y-117436680D01*
X114290688Y-117639305D01*
X114230989Y-117854570D01*
X114207251Y-118076695D01*
X114207548Y-118081848D01*
X114207548Y-118081851D01*
X114213011Y-118176590D01*
X114220110Y-118299715D01*
X114221247Y-118304761D01*
X114221248Y-118304767D01*
X114241119Y-118392939D01*
X114269222Y-118517639D01*
X114353266Y-118724616D01*
X114469987Y-118915088D01*
X114616250Y-119083938D01*
X114788126Y-119226632D01*
X114852276Y-119264118D01*
X114861445Y-119269476D01*
X114910169Y-119321114D01*
X114923240Y-119390897D01*
X114896509Y-119456669D01*
X114856055Y-119490027D01*
X114843607Y-119496507D01*
X114839474Y-119499610D01*
X114839471Y-119499612D01*
X114715600Y-119592617D01*
X114664965Y-119630635D01*
X114661393Y-119634373D01*
X114521665Y-119780590D01*
X114510629Y-119792138D01*
X114384743Y-119976680D01*
X114369003Y-120010590D01*
X114297528Y-120164570D01*
X114290688Y-120179305D01*
X114230989Y-120394570D01*
X114207251Y-120616695D01*
X110564400Y-120616695D01*
X110581529Y-120486590D01*
X110583156Y-120420000D01*
X110564852Y-120197361D01*
X110510431Y-119980702D01*
X110421354Y-119775840D01*
X110300014Y-119588277D01*
X110149670Y-119423051D01*
X110145619Y-119419852D01*
X110145615Y-119419848D01*
X109978414Y-119287800D01*
X109978410Y-119287798D01*
X109974359Y-119284598D01*
X109964054Y-119278909D01*
X109846970Y-119214276D01*
X109778789Y-119176638D01*
X109773920Y-119174914D01*
X109773916Y-119174912D01*
X109573087Y-119103795D01*
X109573083Y-119103794D01*
X109568212Y-119102069D01*
X109563119Y-119101162D01*
X109563116Y-119101161D01*
X109353373Y-119063800D01*
X109353367Y-119063799D01*
X109348284Y-119062894D01*
X109274452Y-119061992D01*
X109130081Y-119060228D01*
X109130079Y-119060228D01*
X109124911Y-119060165D01*
X108904091Y-119093955D01*
X108691756Y-119163357D01*
X108493607Y-119266507D01*
X108489474Y-119269610D01*
X108489471Y-119269612D01*
X108324658Y-119393357D01*
X108314965Y-119400635D01*
X108311393Y-119404373D01*
X108233898Y-119485466D01*
X108172374Y-119520895D01*
X108101462Y-119517438D01*
X108043676Y-119476192D01*
X108024823Y-119442644D01*
X107983324Y-119331946D01*
X107974786Y-119316351D01*
X107898285Y-119214276D01*
X107885724Y-119201715D01*
X107783649Y-119125214D01*
X107768054Y-119116676D01*
X107647606Y-119071522D01*
X107632351Y-119067895D01*
X107581486Y-119062369D01*
X107574672Y-119062000D01*
X106952115Y-119062000D01*
X106936876Y-119066475D01*
X106935671Y-119067865D01*
X106934000Y-119075548D01*
X106934000Y-121759884D01*
X106426000Y-121759884D01*
X106426000Y-119080116D01*
X106421525Y-119064877D01*
X106420135Y-119063672D01*
X106412452Y-119062001D01*
X105785331Y-119062001D01*
X105778510Y-119062371D01*
X105727648Y-119067895D01*
X105712396Y-119071521D01*
X105591946Y-119116676D01*
X105576351Y-119125214D01*
X105474276Y-119201715D01*
X105461715Y-119214276D01*
X105385214Y-119316351D01*
X105376676Y-119331946D01*
X105335297Y-119442322D01*
X105292655Y-119499087D01*
X105226093Y-119523786D01*
X105156744Y-119508578D01*
X105124121Y-119482891D01*
X105073151Y-119426876D01*
X105073145Y-119426870D01*
X105069670Y-119423051D01*
X105065619Y-119419852D01*
X105065615Y-119419848D01*
X104898414Y-119287800D01*
X104898410Y-119287798D01*
X104894359Y-119284598D01*
X104884054Y-119278909D01*
X104766970Y-119214276D01*
X104698789Y-119176638D01*
X104693920Y-119174914D01*
X104693916Y-119174912D01*
X104493087Y-119103795D01*
X104493083Y-119103794D01*
X104488212Y-119102069D01*
X104483119Y-119101162D01*
X104483116Y-119101161D01*
X104273373Y-119063800D01*
X104273367Y-119063799D01*
X104268284Y-119062894D01*
X104194452Y-119061992D01*
X104050081Y-119060228D01*
X104050079Y-119060228D01*
X104044911Y-119060165D01*
X103824091Y-119093955D01*
X103611756Y-119163357D01*
X103413607Y-119266507D01*
X103409474Y-119269610D01*
X103409471Y-119269612D01*
X103244658Y-119393357D01*
X103234965Y-119400635D01*
X103196043Y-119441364D01*
X103143348Y-119496507D01*
X103080629Y-119562138D01*
X103077715Y-119566410D01*
X103077714Y-119566411D01*
X103031354Y-119634373D01*
X102954743Y-119746680D01*
X102860688Y-119949305D01*
X102800989Y-120164570D01*
X102777251Y-120386695D01*
X99124637Y-120386695D01*
X99080431Y-120210702D01*
X98991354Y-120005840D01*
X98870014Y-119818277D01*
X98719670Y-119653051D01*
X98715619Y-119649852D01*
X98715615Y-119649848D01*
X98548414Y-119517800D01*
X98548410Y-119517798D01*
X98544359Y-119514598D01*
X98503053Y-119491796D01*
X98453084Y-119441364D01*
X98438312Y-119371921D01*
X98463428Y-119305516D01*
X98490780Y-119278909D01*
X98534603Y-119247650D01*
X98669860Y-119151173D01*
X98828096Y-118993489D01*
X98887594Y-118910689D01*
X98955435Y-118816277D01*
X98958453Y-118812077D01*
X99057430Y-118611811D01*
X99122370Y-118398069D01*
X99151529Y-118176590D01*
X99153156Y-118110000D01*
X99134852Y-117887361D01*
X99080431Y-117670702D01*
X98991354Y-117465840D01*
X98870014Y-117278277D01*
X98866540Y-117274459D01*
X98866533Y-117274450D01*
X98722435Y-117116088D01*
X98691383Y-117052242D01*
X98699779Y-116981744D01*
X98744956Y-116926976D01*
X98771400Y-116913307D01*
X98878052Y-116873325D01*
X98893649Y-116864786D01*
X98995724Y-116788285D01*
X99008285Y-116775724D01*
X99084786Y-116673649D01*
X99093324Y-116658054D01*
X99138478Y-116537606D01*
X99142105Y-116522351D01*
X99147631Y-116471486D01*
X99148000Y-116464672D01*
X99148000Y-115842115D01*
X99143525Y-115826876D01*
X99142135Y-115825671D01*
X99134452Y-115824000D01*
X96450116Y-115824000D01*
X96434877Y-115828475D01*
X96433672Y-115829865D01*
X96432001Y-115837548D01*
X96432001Y-116464669D01*
X96432371Y-116471490D01*
X96437895Y-116522352D01*
X96441521Y-116537604D01*
X96486676Y-116658054D01*
X96495214Y-116673649D01*
X96571715Y-116775724D01*
X96584276Y-116788285D01*
X96686351Y-116864786D01*
X96701946Y-116873324D01*
X96810827Y-116914142D01*
X96867591Y-116956784D01*
X96892291Y-117023345D01*
X96877083Y-117092694D01*
X96857691Y-117119175D01*
X96734200Y-117248401D01*
X96730629Y-117252138D01*
X96604743Y-117436680D01*
X96510688Y-117639305D01*
X96450989Y-117854570D01*
X96427251Y-118076695D01*
X96427548Y-118081848D01*
X96427548Y-118081851D01*
X96433011Y-118176590D01*
X96440110Y-118299715D01*
X96441247Y-118304761D01*
X96441248Y-118304767D01*
X96461119Y-118392939D01*
X96489222Y-118517639D01*
X96573266Y-118724616D01*
X96689987Y-118915088D01*
X96836250Y-119083938D01*
X97008126Y-119226632D01*
X97072276Y-119264118D01*
X97081445Y-119269476D01*
X97130169Y-119321114D01*
X97143240Y-119390897D01*
X97116509Y-119456669D01*
X97076055Y-119490027D01*
X97063607Y-119496507D01*
X97059474Y-119499610D01*
X97059471Y-119499612D01*
X96935600Y-119592617D01*
X96884965Y-119630635D01*
X96881393Y-119634373D01*
X96741665Y-119780590D01*
X96730629Y-119792138D01*
X96604743Y-119976680D01*
X96589003Y-120010590D01*
X96517528Y-120164570D01*
X96510688Y-120179305D01*
X96450989Y-120394570D01*
X96427251Y-120616695D01*
X85725000Y-120616695D01*
X85725000Y-107441000D01*
X85745002Y-107372879D01*
X85798658Y-107326386D01*
X85851000Y-107315000D01*
X96390975Y-107315000D01*
X96459096Y-107335002D01*
G37*
%TD.AperFunction*%
%TD*%
M02*
